<svg id="Layer_1" data-name="Layer 1" xmlns="http://www.w3.org/2000/svg" viewBox="0 0 46.95 50.86"><defs><style>.cls-1{fill:#ffd22a;}.cls-2{fill:#202529;}</style></defs><path class="cls-1" d="M293.88,411.64c-3.84,1.83-8.5,4.37-9.34,9-.91,5,3,9.13,7.62,10.19,7.26,1.66,24.6-1.71,18.89-12.63-4.66-8.93-17-9.61-23.36-2.36s-6.22,19.65,5.89,18.4c9.85-1,19.54-9.15,16.93-20.14s-15.42-10.51-20.79-2.19c-2.82,4.36-3.59,8.59-2,13.6,1.23,3.91,2.8,9.17,6.88,11,8.55,3.78,15.88-12.09,9.44-17.4-8.13-6.71-19.87,7.8-13.44,15.27,3.11,3.6,9.5,3.1,12.75-.12,3.43-3.39,4.17-9.82,2.32-14-1-2.19-4.8-2.71-6.28-.81-3.79,4.87-4.63,13.51,2,16.76,5.81,2.85,11.43-5.13,10.67-10.29-.26-1.81-2.25-2.82-3.86-2.94-2.81-.21-5.22,2-6.32,4.39l7.45,2c.51-4.66-3-7.71-7.35-8-5.13-.37-5.11,7.63,0,8l-.65,0c-.42,3.89,5.83,5.52,7.46,2l-.59-.42L304.35,428a5.41,5.41,0,0,0-2.2,1.38l3.08-.41c-1.21-1.1-1.27-2.41-.2-3.91l-6.28-.81c.29.65-.53,3.73-1,4.22-1.88,1.92.11-1.58.21-1.87a1.21,1.21,0,0,0,.37-1.92,6.22,6.22,0,0,1-.64,2.94c-1.19,1.3-1.24,1.62-.17,1a17.67,17.67,0,0,1-1.14-2.6c-1.38-3.52-2.27-6.75.26-10,1.29-1.68,3.7-3.6,5.57-1.3,1.46,1.78.28,5.37-.72,7.12a7.82,7.82,0,0,1-4.07,3.47c-1.07.44-4.89,1.93-5.82,1.16-2.44-2.05,4.44-7.58,6.37-7.62,1.22,0,4.94.5,5.25,2.07.37,1.89-1.82,1.57-3.15,1.8s-7.12,1.67-7.13-1.17c0-.85,4.31-2.59,5-2.92,4.64-2.22.59-9.12-4-6.9Z" transform="translate(-274.02 -395.01)"/><path class="cls-2" d="M294.3,438.16c.27-.34.26-.56-.07-.85a3.13,3.13,0,0,0-.42-.29c-.65-.43-.67-.51-.28-1.4a18.62,18.62,0,0,1-5.14-2.57,20.39,20.39,0,0,1-2.8-2.46,7.79,7.79,0,0,1-1.78-4.4,16.93,16.93,0,0,1,1-8.41,18.8,18.8,0,0,1,2.61-4.39,13.55,13.55,0,0,1,6.44-4.63,19.17,19.17,0,0,1,3.53-.69,13.81,13.81,0,0,1,5.89.43,13,13,0,0,1,4.76,3c.39.35.79.69,1.15,1.08a10.56,10.56,0,0,1,2.66,7.79,22.38,22.38,0,0,1-.25,3.68A17.47,17.47,0,0,1,309,430.3a12.09,12.09,0,0,1-3.33,3.46,19.18,19.18,0,0,1-1.7,1c-.26.13-.46.22-.3.59a.81.81,0,0,1-.42,1.13,1,1,0,0,0-.29.19,3.72,3.72,0,0,0-.27.48c.18.11.42.36.52.3v.84s-.15.07-.19.13a.34.34,0,0,0,0,.26c0,.07.12.11.19.15.71.43.72.49.23,1.18a.69.69,0,0,0-.2.64,2.37,2.37,0,0,1-1.38,2.44,2.61,2.61,0,0,0-1.25.83,1.44,1.44,0,0,1-2.25.18,2.48,2.48,0,0,0-1.37-.59,8.24,8.24,0,0,1-1.53-.41,1.31,1.31,0,0,1-.7-.56c-.08-.2.12-.54.19-.82-.84-.57-.87-.69-.32-1.41l-.66-.42C293.4,439.25,294.3,438.16,294.3,438.16Zm3.61-2.67a13.35,13.35,0,0,0,4.46-.73,11.16,11.16,0,0,0,5.86-4.23,20.09,20.09,0,0,0,2.74-6,8,8,0,0,0,.33-2.91,8.68,8.68,0,0,1,0-1,11.11,11.11,0,0,0-1.51-6.33c0-.09-.2-.24-.22-.23-.36.31-.36-.13-.44-.28a10.34,10.34,0,0,0-6.17-4.89,12.9,12.9,0,0,0-5.49-.35,13.92,13.92,0,0,0-3.2.61,13.32,13.32,0,0,0-6.12,4.19,16.57,16.57,0,0,0-3.48,6.85,17,17,0,0,0-.3,5.69,7.9,7.9,0,0,0,2.2,4.85,16.26,16.26,0,0,0,3.49,2.67A14.64,14.64,0,0,0,297.91,435.49ZM295.24,441a3.2,3.2,0,0,1,.56.52c.09.11.15.4.08.48-.39.49,0,.65.29.75a3.52,3.52,0,0,0,1.06.18,12.12,12.12,0,0,0,3.89-.17,1.78,1.78,0,0,0,1.4-1.14c.08-.2.17-.56.08-.65a1.11,1.11,0,0,0-.72-.32,3.4,3.4,0,0,0-1,.22,11.9,11.9,0,0,1-4.24.38c-.15,0-.44-.19-.44-.29,0-.35.29-.28.51-.27l.92,0a7.75,7.75,0,0,0,3.7-.57,1.37,1.37,0,0,1,.64,0,1,1,0,0,0,1.05-.71,2,2,0,0,0-.3-.1c-.26,0-.6.25-.73-.18,0-.15.14-.42.25-.6.24-.4,0-.7-.12-1s-.41-.19-.64-.15a5.93,5.93,0,0,1-.59.07l-3.75.05a7.75,7.75,0,0,0-1.08,0c-.32,0-.64.26-.56.65a1.15,1.15,0,0,1-.69,1.4C295.82,440,295.88,440.18,295.24,441ZM294.08,436l0,.25c.13.1.25.27.39.3a14,14,0,0,0,2.12.37c1.29.05,2.57,0,3.85,0a3.39,3.39,0,0,0,2.07-.6c.29-.21.87-.32.67-.86s-.64-.18-1-.07a17.19,17.19,0,0,1-6.05.64C295.44,436.05,294.76,436.05,294.08,436Z" transform="translate(-274.02 -395.01)"/><path class="cls-2" d="M294.31,412.1a4,4,0,0,1-.76.88,9.73,9.73,0,0,0-2.59,2.29c-.3.4-.65.58-1.1.26,0,0-.1,0-.15-.06-1-.4-1.14-.63-.44-1.48a10.21,10.21,0,0,1,3.35-3c.34-.16.56-.22.87.11S294.15,411.55,294.31,412.1Zm-4.78,2.57a.77.77,0,0,0,1.25-.07,11.36,11.36,0,0,1,2.44-2.06.82.82,0,0,0,.29-.58c0-.12-.24-.33-.4-.37a1,1,0,0,0-.7,0A7.33,7.33,0,0,0,289.53,414.67Z" transform="translate(-274.02 -395.01)"/><path class="cls-2" d="M288.53,419.79a3.09,3.09,0,0,1-1-.4,1.27,1.27,0,0,1-.31-1.5c.18-.38.34-.78.53-1.15s.36-.52.75-.3c.16.09.43-.06.64,0a3,3,0,0,1,1,.21.77.77,0,0,1,.28,1.1c-.21.43-.48.83-.68,1.27S289.2,419.93,288.53,419.79Zm.81-3c-1.23.08-1.58.41-1.64,1.3a1.06,1.06,0,0,0,.5,1,.91.91,0,0,0,1.06-.24,8.6,8.6,0,0,0,.55-.92c.15-.26.34-.57.08-.83A1.46,1.46,0,0,0,289.34,416.78Z" transform="translate(-274.02 -395.01)"/><path class="cls-2" d="M299.39,439c-.72,0-1.45,0-2.17,0a5.94,5.94,0,0,1-1.28-.35.4.4,0,0,1-.15-.34.44.44,0,0,1,.3-.24.37.37,0,0,1,.31.07,1.94,1.94,0,0,0,1.44.34c.78,0,1.56-.06,2.33-.08.14,0,.33,0,.4.06.22.24.4.33.68.09.08-.06.32.11.49.17-.12.13-.21.34-.35.39a9.62,9.62,0,0,1-5.24.65c-.08,0-.18,0-.24-.05a1.89,1.89,0,0,1-.27-.29c.1-.07.21-.22.32-.21.38,0,.77.13,1.15.13.77,0,1.54-.06,2.31-.09Z" transform="translate(-274.02 -395.01)"/><path class="cls-2" d="M292.37,397.53c.06-.1.11-.28.21-.32s.26.07.32.16a3.54,3.54,0,0,1,.3.76,51,51,0,0,0,1.92,6,.58.58,0,0,1,.09.26,4.31,4.31,0,0,1-.11.49c-.15-.09-.38-.15-.43-.29-.33-.94-.64-1.9-.93-2.86s-.55-1.94-.84-2.9C292.76,398.39,292.56,398,292.37,397.53Z" transform="translate(-274.02 -395.01)"/><path class="cls-2" d="M282.17,403.15c.12,0,.29-.13.36-.08a4.84,4.84,0,0,1,.85.72c1.06,1.18,2.09,2.38,3.15,3.56.23.25.54.42.79.66a.39.39,0,0,1,0,.63c-.19.17-.33.13-.49-.07-1.07-1.29-2.14-2.58-3.23-3.85a16.15,16.15,0,0,0-1.18-1.16,2.46,2.46,0,0,0-.34-.22Z" transform="translate(-274.02 -395.01)"/><path class="cls-2" d="M283.39,415.39l-.44-.3L277.42,411a.8.8,0,0,1-.2-.15.35.35,0,0,1-.06-.25c0-.06.16-.13.21-.1a3.24,3.24,0,0,1,.66.36c1.45,1.08,2.89,2.19,4.35,3.26.36.27.79.43,1.17.67a.42.42,0,0,1,.15.35C283.67,415.22,283.51,415.29,283.39,415.39Z" transform="translate(-274.02 -395.01)"/><path class="cls-2" d="M313,432a3.5,3.5,0,0,1,.6.09,36,36,0,0,1,5.52,3.07c.17.11.38.53.33.6-.21.31-.44.06-.63-.11a22.94,22.94,0,0,0-4.91-2.93C313.56,432.56,313.15,432.55,313,432Z" transform="translate(-274.02 -395.01)"/><path class="cls-2" d="M314.39,423.59a2,2,0,0,1,.55,0l4.34,1.33c.43.13.87.23,1.29.38.16.06.41.25.4.35,0,.35-.33.24-.53.2a8.76,8.76,0,0,1-1-.29L314.76,424a3.29,3.29,0,0,1-.42-.21Z" transform="translate(-274.02 -395.01)"/><path class="cls-2" d="M288.74,437.44a.94.94,0,0,1,0,1q-1.21,2.83-2.46,5.65c-.21.47-.47.91-.68,1.38-.1.23-.19.53-.46.37s-.09-.46,0-.69c.63-1.13,1.3-2.23,1.84-3.4s1-2.65,1.56-4A2.23,2.23,0,0,1,288.74,437.44Z" transform="translate(-274.02 -395.01)"/><path class="cls-2" d="M274.29,432.69l-.27-.26c.09-.1.17-.25.28-.28.34-.12.71-.17,1.05-.28l5.23-1.58a1.13,1.13,0,0,1,.24-.08.26.26,0,0,1,.2.11.32.32,0,0,1,0,.24,2.89,2.89,0,0,1-.53.26l-5.63,1.72Z" transform="translate(-274.02 -395.01)"/><path class="cls-2" d="M309.22,433.06a1.71,1.71,0,0,1,.36.31,11.57,11.57,0,0,0,2.74,2.84,5.76,5.76,0,0,1,1,.89.94.94,0,0,1,.13.65c0,.21-.29.3-.36.07-.22-.75-.86-1-1.33-1.47-.71-.69-1.43-1.38-2.1-2.11A1.1,1.1,0,0,1,309.22,433.06Z" transform="translate(-274.02 -395.01)"/><path class="cls-2" d="M275,415.76l3.5.7c.47.1.94.17,1.4.28a1.3,1.3,0,0,1,.54.23c.1.09.12.3.17.45-.13,0-.27.11-.38.07a23.82,23.82,0,0,0-5.38-1.22,1.2,1.2,0,0,1-.33-.06,1.17,1.17,0,0,1-.21-.23c.07-.07.14-.18.23-.21A1.56,1.56,0,0,1,275,415.76Z" transform="translate(-274.02 -395.01)"/><path class="cls-2" d="M279.81,408c.23,0,.41-.06.5,0,.51.39,1,.81,1.49,1.2.66.51,1.34,1,2,1.52a4.28,4.28,0,0,1,.74.84c.05.07-.06.27-.09.41-.1,0-.23,0-.29-.11a32.89,32.89,0,0,0-3.59-3c-.17-.16-.36-.29-.53-.46A2.19,2.19,0,0,1,279.81,408Z" transform="translate(-274.02 -395.01)"/><path class="cls-2" d="M301.62,395.05a3.85,3.85,0,0,1,0,.59c-.27,2.31-.54,4.62-.83,6.93,0,.15-.15.27-.22.41-.09-.15-.24-.3-.24-.44,0-.33.1-.66.14-1,.21-1.43.4-2.85.6-4.28.08-.6.14-1.21.24-1.82a1.68,1.68,0,0,1,.19-.44Z" transform="translate(-274.02 -395.01)"/><path class="cls-2" d="M312,409c-.05-.19-.12-.3-.1-.38a1.08,1.08,0,0,1,.21-.28c.85-1.05,1.69-2.12,2.58-3.15.67-.78,1.38-1.51,2.1-2.24a1.4,1.4,0,0,1,.59-.31c.07,0,.18.09.27.14s-.1.23-.17.25a5,5,0,0,0-2.12,1.88c-1,1.16-1.88,2.36-2.82,3.54A6.73,6.73,0,0,1,312,409Z" transform="translate(-274.02 -395.01)"/><path class="cls-2" d="M291.88,437.16a24.09,24.09,0,0,0-2,5.41.76.76,0,0,1-.12.33.48.48,0,0,1-.35.13c-.06,0-.13-.18-.15-.28a.54.54,0,0,1,0-.27c.58-1.52,1.17-3.05,1.76-4.57A1.05,1.05,0,0,1,291.88,437.16Z" transform="translate(-274.02 -395.01)"/><path class="cls-2" d="M275.71,421.52c.59-.42,4.11-.24,5.72.17-.13.39-.45.3-.7.29-.86,0-1.71-.09-2.57-.17S276.52,421.62,275.71,421.52Z" transform="translate(-274.02 -395.01)"/><path class="cls-2" d="M297.3,402.8l-.45-3.36a2,2,0,0,1-.08-.54c0-.11.17-.21.27-.27s.19.13.21.22c.08.51.16,1,.21,1.54.11,1.1.2,2.2.29,3.3a.72.72,0,0,1,0,.36c-.07.11-.19.24-.3.25s-.22-.18-.23-.29c0-.4,0-.8,0-1.2Z" transform="translate(-274.02 -395.01)"/><path class="cls-2" d="M314.89,414.3a6.21,6.21,0,0,1,.59-.26l4.35-1.61a2.71,2.71,0,0,1,.73-.15c.1,0,.2.17.3.26-.09.1-.16.28-.26.3-.38.1-.78.12-1.15.24-1.28.41-2.55.86-3.83,1.29-.23.08-.47.12-.7.18Z" transform="translate(-274.02 -395.01)"/><path class="cls-2" d="M280.24,426.59l.71.25c-.21.42-.57.23-.88.26-1.24.13-2.48.25-3.72.35-.15,0-.31-.1-.47-.16.15-.11.29-.29.44-.3C277.56,426.84,278.8,426.73,280.24,426.59Z" transform="translate(-274.02 -395.01)"/><path class="cls-2" d="M289.6,403.2c.06-.07.11-.21.19-.23a.29.29,0,0,1,.26.13c.11.17.16.39.26.57.38.78.77,1.55,1.16,2.32,0,.11.16.21.15.31s0,.41-.13.46-.29-.05-.43-.11a.64.64,0,0,1-.14-.23c-.41-.94-.82-1.87-1.22-2.81A4.13,4.13,0,0,1,289.6,403.2Z" transform="translate(-274.02 -395.01)"/><path class="cls-2" d="M303.12,405.19a3.13,3.13,0,0,1,.24-.75c.61-1.08,1.25-2.16,1.88-3.23l.5-.85a1.82,1.82,0,0,1,.32-.4c.06,0,.23,0,.3.05a.43.43,0,0,1,0,.32.94.94,0,0,1-.21.28,17.35,17.35,0,0,0-2.69,4.29l-.21.37Z" transform="translate(-274.02 -395.01)"/><path class="cls-2" d="M308.55,407.87a2.56,2.56,0,0,1,.78-1.83,21.46,21.46,0,0,1,1.71-1.73.84.84,0,0,1,.35-.25.92.92,0,0,1,.36.05,1.08,1.08,0,0,1-.09.32c-.19.22-.4.42-.61.62A9,9,0,0,0,308.55,407.87Z" transform="translate(-274.02 -395.01)"/><path class="cls-2" d="M311.65,428a1.49,1.49,0,0,1,.43.06c.94.47,1.87.94,2.79,1.43a.9.9,0,0,1,.41.3c.11.18.23.51.16.61-.23.33-.32-.07-.49-.17-.87-.55-1.74-1.07-2.62-1.59l-.75-.46Z" transform="translate(-274.02 -395.01)"/><path class="cls-2" d="M317.86,418.53c-.28.13-.35.19-.41.18l-3.81-.42c-.19,0-.45,0-.38-.32,0-.09.25-.18.39-.19a4.82,4.82,0,0,1,.75.1c.85.11,1.71.21,2.56.35A5.8,5.8,0,0,1,317.86,418.53Z" transform="translate(-274.02 -395.01)"/><path class="cls-2" d="M280.21,434.09c.39-1,2.35-2.14,4.15-2.42a3,3,0,0,1-1.35.86c-.45.24-.92.45-1.37.7S280.75,433.76,280.21,434.09Z" transform="translate(-274.02 -395.01)"/><path class="cls-2" d="M312,412a3.63,3.63,0,0,1,3.74-1.77c-.33.48-.83.31-1.21.5s-.88.37-1.31.58S312.48,411.71,312,412Z" transform="translate(-274.02 -395.01)"/><path class="cls-2" d="M285.09,438.32c.79-.82,1.58-1.64,2.38-2.45a1.15,1.15,0,0,1,.35-.24.21.21,0,0,1,.21.08.26.26,0,0,1,0,.24c-.06.1-.17.15-.25.23l-2.23,2.11a1.29,1.29,0,0,1-.32.19Z" transform="translate(-274.02 -395.01)"/></svg>