<svg id="Layer_1" data-name="Layer 1" xmlns="http://www.w3.org/2000/svg" viewBox="0 0 52.74 58.59"><defs><style>.cls-1{fill:#40b7ab;}.cls-2{fill:#202529;}.cls-3{fill:#fff;}</style></defs><path class="cls-1" d="M284.9,423a104.33,104.33,0,0,1,9.68-9.24l-9.1-5.29c-1.8,5.38-7.21,11.44-5.56,17.44a5.54,5.54,0,0,0,5.25,4c4.54,0,8.31-4.44,11.71-7a132.58,132.58,0,0,1,13-8.59l-8-6.14c-2,6.73-8.24,13-12.3,18.69-3.58,5,4.57,11.33,8.54,6.59A55.66,55.66,0,0,1,310.81,422l-7.44-7.44a41.52,41.52,0,0,1-4.39,7.76c-3.9,5.43,4.14,10.12,8.55,6.6,3.31-2.65,6.64-5.26,10.09-7.72l-8-6.15-4.09,10.2c-2.34,5.83,6.9,9.36,9.95,4.19l1.07-1.73-9.09-2.4.2.87c1.56,6.82,12.05,3.93,10.49-2.9l-.2-.86c-.84-3.7-6.55-5.63-9.09-2.4a32.78,32.78,0,0,0-2.78,3.93l10,4.19L320.12,418c1.73-4.32-4.27-8.8-8-6.15-4.21,3-8.26,6.2-12.29,9.42l8.54,6.6a42.12,42.12,0,0,0,4.38-7.77c2-4.55-2.38-10.67-7.44-7.45a64.57,64.57,0,0,0-14.85,13.13l8.54,6.59c4.74-6.57,11-13.4,13.4-21.29,1.38-4.59-4-8.49-8-6.14-3.74,2.17-7.38,4.49-10.9,7q-2.36,1.69-4.65,3.48c-.68.53-5.23,3.59-3.7,3.59l5.25,4c0-.13,2.54-4.58,2.83-5.16a50.6,50.6,0,0,0,2.73-6.49c1.88-5.59-5.28-8.49-9.1-5.29a106.79,106.79,0,0,0-9.68,9.23c-4.75,5.14,2.93,12.85,7.7,7.7Z" transform="translate(-271.13 -391.16)"/><path class="cls-2" d="M294.73,397.62a4.55,4.55,0,0,1-.43-.89,1.27,1.27,0,0,0-.9-1,1.88,1.88,0,0,1-.27-.17,4.5,4.5,0,0,1,.42-2.62,3.29,3.29,0,0,1,2.12-1.71,2,2,0,0,1,1.09,0,5.43,5.43,0,0,1,1.93.79,3.13,3.13,0,0,1,1.19,2,7.13,7.13,0,0,1,.05,1.39,1,1,0,0,1-.14.37,1.06,1.06,0,0,1-.31,0,.61.61,0,0,0-.84.32,3.72,3.72,0,0,1-1.59,1.55c.51.41,1,.8,1.43,1.16a2.63,2.63,0,0,1,.91,1.63,6.62,6.62,0,0,0,.31,1.16,2.54,2.54,0,0,1,.16,1.36c-.11.06-.2.14-.28.14l-2.42.06a5.68,5.68,0,0,0-1,0,12.94,12.94,0,0,1-2.71.15,2.74,2.74,0,0,1-.5,0,.71.71,0,0,1-.69-.83,8.16,8.16,0,0,1,1.22-3.8A3.31,3.31,0,0,1,294.73,397.62Zm2.7,2.5-.31.25c-.2.15-.16.35-.1.55-.36.06-.36.06-.5.67.19-.27.34-.49.48-.71s.07-.35.1-.53a2.6,2.6,0,0,0,.32-.26c0-.07,0-.15,0,0C297.4,400,297.41,400,297.43,400.12Zm-2.71.26-.06-.44c.23,0,.31-.1.33-.5l-.3.53c-.17.13-.4.23-.31.53l.37-.15.07.28.19-.18Zm2.75.36c.51-.12.63-.51.66-1h.42c-.07.27-.13.54-.2.81a.36.36,0,0,0-.15.08s0,.09.05.14.05,0,.06-.07,0-.11,0-.17l.59-.29a1.51,1.51,0,0,0-.15-.33,1.37,1.37,0,0,0-.23-.17c-.23-.72-.32-.81-1.09-1.08,0,0-.05,0-.06.07a1.06,1.06,0,0,0-.06.19c-.21.16-.43.33-.37.65-.11.07-.25.11-.31.2-.43.67-.85,1.35-1.26,2,0,0,0,.11.06.17a5.19,5.19,0,0,0,1.49-2.41.73.73,0,0,0,.36-.66c.13,0,.3,0,.37.13s.32.48.48.72c-.43.18-.49.61-.65,1a.61.61,0,0,0-.12.16s0,.09.06.14.08-.09.08-.14A.41.41,0,0,0,297.47,400.74Zm-1.33-7.43c-.43.05-.87.09-1.3.15a.65.65,0,0,0-.54.53c0,.13,0,.26-.06.39a5.06,5.06,0,0,0,.5,2.54.63.63,0,0,0,.38.29,3.45,3.45,0,0,0,.79.15,2.16,2.16,0,0,0,1.45-.28,3,3,0,0,0,1.16-2.93.71.71,0,0,0-.59-.6A5.69,5.69,0,0,0,296.14,393.31Zm0,6.17c-.12.15-.26.3-.37.46l-1.27,1.93A4.46,4.46,0,0,0,296.18,399.48Zm-2.83,1.46a2.93,2.93,0,0,0,1.23-1.81A3.2,3.2,0,0,0,293.35,400.94Zm3.71-2.42c-.61-.44-.61-.44-1.06-.16.15.36.49.39.81.41C296.89,398.77,297,398.61,297.06,398.52Zm0-5.64a4,4,0,0,0,.53.19c.08,0,.25,0,.25-.06a.42.42,0,0,0,0-.35.43.43,0,0,0-.33-.14C297.34,392.56,297.24,392.7,297.05,392.88Zm.29-.89-.9-.22A.59.59,0,0,0,297.34,392Zm1.71,9.39c0-.13.06-.21,0-.25a1.56,1.56,0,0,0-.23-.28s-.1.08-.12.13.05.24.16.31Zm-2.54,1.3c.09-.13.19-.21.17-.25a.29.29,0,0,0-.18-.18c-.06,0-.14.07-.22.11Zm2.09-10c0-.28-.06-.45-.37-.33Zm-5.66,9a.61.61,0,0,0-.1.14l.05.05a.6.6,0,0,0,.13-.09Zm6.15-7.8,0-.08-.05,0s0,.05,0,.08Zm-2.5-1.07v-.07l-.08,0Zm-1.75,0v-.09l-.11,0s0,.06,0,.08S294.81,392.83,294.84,392.83Z" transform="translate(-271.13 -391.16)"/><path class="cls-2" d="M317.49,430.15a5.59,5.59,0,0,1-.43-.89,1.28,1.28,0,0,0-.89-1,1.58,1.58,0,0,1-.27-.16,4.47,4.47,0,0,1,.42-2.63,3.31,3.31,0,0,1,2.11-1.71,2,2,0,0,1,1.09,0,5.58,5.58,0,0,1,1.94.8,3.08,3.08,0,0,1,1.18,2,7.16,7.16,0,0,1,.06,1.39,1.37,1.37,0,0,1-.14.38,1.09,1.09,0,0,1-.32,0,.62.62,0,0,0-.84.32,3.61,3.61,0,0,1-1.59,1.55c.51.42,1,.8,1.43,1.17a2.53,2.53,0,0,1,.91,1.63,6.64,6.64,0,0,0,.32,1.16,2.64,2.64,0,0,1,.15,1.36c-.11,0-.19.14-.28.14-.81,0-1.61.05-2.42.06a4.77,4.77,0,0,0-1,0,13,13,0,0,1-2.72.14,4.26,4.26,0,0,1-.5,0A.71.71,0,0,1,315,435a7.9,7.9,0,0,1,1.22-3.8A3.19,3.19,0,0,1,317.49,430.15Zm2.7,2.49-.3.26c-.21.15-.17.34-.1.54-.37.07-.37.07-.51.68.19-.28.34-.49.48-.71l.1-.53.32-.26c0-.08,0-.15,0,0C320.16,432.48,320.18,432.56,320.19,432.64Zm-2.71.27-.06-.45c.24,0,.31-.1.34-.49-.17.27-.24.4-.31.52s-.4.24-.31.54l.37-.15.08.27.19-.18Zm2.75.36c.51-.13.63-.52.66-1h.42c-.06.27-.13.54-.19.81-.06,0-.13,0-.15.08s0,.1,0,.15.05-.05.05-.07a.55.55,0,0,0,0-.18l.59-.29a2.17,2.17,0,0,0-.15-.33.94.94,0,0,0-.23-.16c-.23-.73-.31-.81-1.08-1.09a.16.16,0,0,0-.07.07l-.06.19c-.21.17-.43.33-.37.66-.1.06-.25.1-.31.19-.43.67-.84,1.35-1.26,2,0,0,0,.11.07.16a5.28,5.28,0,0,0,1.48-2.4.76.76,0,0,0,.37-.66c.12,0,.29,0,.36.12a7.06,7.06,0,0,1,.48.73c-.43.18-.49.61-.65,1,0,0-.1.1-.11.15s0,.09.06.14.08-.09.08-.14A.7.7,0,0,0,320.23,433.27Zm-1.33-7.44-1.29.15a.63.63,0,0,0-.54.53,2.79,2.79,0,0,0-.07.4,5,5,0,0,0,.51,2.53.58.58,0,0,0,.37.29,3.15,3.15,0,0,0,.79.15,2.25,2.25,0,0,0,1.46-.27,3,3,0,0,0,1.16-2.93.76.76,0,0,0-.6-.61A6.34,6.34,0,0,0,318.9,425.83Zm0,6.18c-.12.15-.25.3-.36.46l-1.28,1.92A4.43,4.43,0,0,0,318.94,432Zm-2.83,1.45a2.94,2.94,0,0,0,1.23-1.8A3.25,3.25,0,0,0,316.11,433.46Zm3.72-2.42c-.62-.44-.62-.44-1.07-.16.15.37.49.39.81.41C319.65,431.3,319.74,431.13,319.83,431Zm0-5.64c.25.09.39.17.53.2s.25,0,.26-.07a.49.49,0,0,0,0-.34.38.38,0,0,0-.33-.14C320.1,425.09,320,425.23,319.81,425.4Zm.3-.89-.91-.21A.59.59,0,0,0,320.11,424.51Zm1.71,9.4c0-.14.06-.22,0-.26a2,2,0,0,0-.23-.28c0,.05-.09.08-.11.14s0,.24.16.31Zm-2.55,1.29c.1-.12.19-.2.18-.24a.29.29,0,0,0-.18-.18c-.07,0-.15.06-.22.1Zm2.1-9.95c0-.28-.06-.45-.38-.33Zm-5.67,9-.1.14s0,.06.06.05l.12-.09Zm6.15-7.8,0-.07s-.05,0-.05,0a.19.19,0,0,0,0,.07Zm-2.49-1.07v-.06l-.07,0Zm-1.76,0,0-.08-.12,0s0,.06,0,.07S317.58,425.36,317.6,425.35Z" transform="translate(-271.13 -391.16)"/><path class="cls-2" d="M278.42,438a4.29,4.29,0,0,1-.43-.89,1.29,1.29,0,0,0-.89-1,1.19,1.19,0,0,1-.27-.17,4.5,4.5,0,0,1,.41-2.62,3.29,3.29,0,0,1,2.12-1.71,2,2,0,0,1,1.09,0,5.58,5.58,0,0,1,1.94.8,3,3,0,0,1,1.18,2,7.16,7.16,0,0,1,.06,1.39,1.25,1.25,0,0,1-.15.37,1.06,1.06,0,0,1-.31,0,.61.61,0,0,0-.84.32,3.67,3.67,0,0,1-1.59,1.55c.51.41,1,.8,1.43,1.16a2.63,2.63,0,0,1,.91,1.63,7.75,7.75,0,0,0,.31,1.17,2.53,2.53,0,0,1,.16,1.36c-.11.05-.19.13-.28.14l-2.42.06a4.79,4.79,0,0,0-1,0,12.39,12.39,0,0,1-2.72.15,2.8,2.8,0,0,1-.5,0,.7.7,0,0,1-.68-.83,8,8,0,0,1,1.21-3.8A3.49,3.49,0,0,1,278.42,438Zm2.7,2.5-.3.26c-.21.14-.17.34-.11.54-.36.06-.36.06-.5.68.19-.28.34-.49.48-.72l.1-.53a3.92,3.92,0,0,0,.32-.25c0-.08,0-.16,0,0C281.09,440.34,281.1,440.42,281.12,440.5Zm-2.71.26-.06-.44c.24,0,.31-.1.33-.49l-.3.52c-.17.13-.4.24-.31.54l.37-.16.07.28.19-.18Zm2.75.36c.51-.12.63-.51.66-1h.42c-.07.27-.13.54-.2.81-.05,0-.12,0-.15.08s0,.09.06.14.05,0,.05-.06,0-.12,0-.18l.59-.29a1.51,1.51,0,0,0-.15-.33,1.37,1.37,0,0,0-.23-.17c-.23-.72-.32-.81-1.09-1.08,0,0-.05,0-.06.07a1.06,1.06,0,0,0-.06.19c-.21.17-.43.33-.37.65-.11.07-.25.11-.31.2-.43.67-.85,1.35-1.26,2,0,0,0,.1.06.16a5.21,5.21,0,0,0,1.49-2.4.76.76,0,0,0,.36-.67c.13,0,.3,0,.37.13a7.67,7.67,0,0,1,.48.73c-.43.17-.49.6-.65,1,0,.05-.1.09-.11.15s0,.09.05.14.08-.09.09-.14A.64.64,0,0,0,281.16,441.12Zm-1.33-7.43c-.43.05-.87.09-1.3.15a.63.63,0,0,0-.53.53,2.66,2.66,0,0,0-.07.39,5.06,5.06,0,0,0,.5,2.54.67.67,0,0,0,.38.29,3.45,3.45,0,0,0,.79.15,2.2,2.2,0,0,0,1.46-.28,3,3,0,0,0,1.15-2.93.71.71,0,0,0-.59-.6A5.69,5.69,0,0,0,279.83,433.69Zm0,6.17c-.12.16-.26.3-.37.47l-1.27,1.92A4.42,4.42,0,0,0,279.87,439.86ZM277,441.32a2.93,2.93,0,0,0,1.23-1.81A3.25,3.25,0,0,0,277,441.32Zm3.71-2.42c-.61-.44-.61-.44-1.06-.16.15.36.49.39.81.41C280.58,439.16,280.67,439,280.75,438.9Zm0-5.64a4,4,0,0,0,.53.19c.08,0,.25,0,.26-.06a.49.49,0,0,0,0-.34.39.39,0,0,0-.34-.14C281,432.94,280.93,433.09,280.74,433.26Zm.3-.89-.91-.22A.59.59,0,0,0,281,432.37Zm1.71,9.39c0-.13.05-.21,0-.25a1.56,1.56,0,0,0-.23-.28s-.1.08-.12.13.05.24.17.32Zm-2.55,1.3c.09-.13.19-.21.18-.25a.34.34,0,0,0-.19-.18c-.06,0-.14.07-.22.11Zm2.09-10c0-.27-.05-.45-.37-.33Zm-5.66,9-.1.14s.05.06.06.05a.94.94,0,0,0,.12-.09Zm6.15-7.8,0-.07h-.05s0,.05,0,.08Zm-2.49-1.07v-.07l-.08,0Zm-1.76,0v-.09l-.11,0s0,.06,0,.08S278.5,433.21,278.53,433.21Z" transform="translate(-271.13 -391.16)"/><path class="cls-2" d="M320,402.22a1.58,1.58,0,0,0-1.28.89,3.45,3.45,0,0,1-.78.74c-.13.11-.27.2-.47.36a9.88,9.88,0,0,1,.93.65c.25.2.46.46.7.69a3.52,3.52,0,0,1,1.13,2.17c.07.54.19,1.06.29,1.62a6.57,6.57,0,0,1-2.73.25,9.66,9.66,0,0,0-2.94,0c-.48.07-.48.06-1-.26,0-.4,0-.8.09-1.19a5.31,5.31,0,0,1,1.1-3.13c.22-.24.39-.52.6-.8l-.94-1.64a1.22,1.22,0,0,1-1-1.39,5,5,0,0,1,.44-2,1.36,1.36,0,0,1,.38-.53,3.74,3.74,0,0,1,3-.93,2.41,2.41,0,0,1,2,1.53A4.28,4.28,0,0,1,320,402.22Zm-.61,6.38a4.78,4.78,0,0,1-.08-.74,3.59,3.59,0,0,0-1.52-2.77,1.14,1.14,0,0,0-1.39-.3,2.94,2.94,0,0,0-1.51,2c-.1.57-.24,1.13-.35,1.7a2.78,2.78,0,0,0,0,.5,1.77,1.77,0,0,0,.37.09h3.15A2.06,2.06,0,0,0,319.41,408.6Zm-.83-9.23c-.43,0-.75-.06-1.07-.06a13.26,13.26,0,0,0-1.41,0c-.39,0-.61.27-.77.66a4.65,4.65,0,0,0,.14,3.08,1.14,1.14,0,0,0,1.49.77,2.34,2.34,0,0,0,1.52-1A3,3,0,0,0,318.58,399.37Zm1.29,8.57v-.2h-.07v.2Z" transform="translate(-271.13 -391.16)"/><path class="cls-2" d="M279,410.19a1.59,1.59,0,0,0-1.28.88,3.45,3.45,0,0,1-.78.74c-.13.11-.27.21-.47.36.36.25.66.43.93.65s.46.47.7.69a3.54,3.54,0,0,1,1.13,2.18c.07.53.19,1.06.29,1.62a6.73,6.73,0,0,1-2.73.24,10,10,0,0,0-2.94,0c-.48.06-.48.06-1-.27,0-.4.05-.79.09-1.18a5.29,5.29,0,0,1,1.1-3.13c.22-.25.39-.53.6-.8l-.94-1.65c-.68-.12-1-.66-1-1.38a5,5,0,0,1,.44-2,1.4,1.4,0,0,1,.38-.52,3.74,3.74,0,0,1,3-.93,2.42,2.42,0,0,1,2,1.52A4.3,4.3,0,0,1,279,410.19Zm-.61,6.38a4.78,4.78,0,0,1-.08-.75,3.57,3.57,0,0,0-1.52-2.76,1.13,1.13,0,0,0-1.39-.3,2.9,2.9,0,0,0-1.51,2c-.1.57-.24,1.13-.35,1.7a2.67,2.67,0,0,0,0,.49,1.38,1.38,0,0,0,.37.1h3.15A2.11,2.11,0,0,0,278.42,416.57Zm-.83-9.23c-.43,0-.75-.06-1.07-.07s-.94,0-1.41,0a.9.9,0,0,0-.77.66,4.67,4.67,0,0,0,.14,3.09,1.14,1.14,0,0,0,1.49.77,2.41,2.41,0,0,0,1.52-1A3,3,0,0,0,277.59,407.34Zm1.29,8.57v-.21h-.07v.21Z" transform="translate(-271.13 -391.16)"/><path class="cls-2" d="M304.37,442.33a1.57,1.57,0,0,0-1.28.88,3.73,3.73,0,0,1-.79.74c-.13.11-.27.21-.47.36.36.25.67.43.94.65s.46.47.69.69a3.55,3.55,0,0,1,1.14,2.18c.06.53.18,1.06.28,1.62a6.7,6.7,0,0,1-2.73.24,9.92,9.92,0,0,0-2.93,0c-.49.06-.49.06-1-.27l.09-1.18a5.23,5.23,0,0,1,1.11-3.13c.21-.25.39-.52.59-.8l-.94-1.65c-.68-.12-1-.66-1-1.38a4.86,4.86,0,0,1,.43-2,1.52,1.52,0,0,1,.38-.52,3.75,3.75,0,0,1,3-.93,2.43,2.43,0,0,1,2,1.52A4.42,4.42,0,0,1,304.37,442.33Zm-.61,6.38a6.39,6.39,0,0,1-.09-.75,3.58,3.58,0,0,0-1.51-2.76,1.13,1.13,0,0,0-1.39-.3,2.88,2.88,0,0,0-1.52,2c-.1.57-.24,1.13-.34,1.7a2.68,2.68,0,0,0,0,.49,1.48,1.48,0,0,0,.37.1h3.16A2.06,2.06,0,0,0,303.76,448.71Zm-.83-9.23c-.43,0-.75-.06-1.07-.07-.47,0-.95,0-1.42,0a.9.9,0,0,0-.77.66,4.74,4.74,0,0,0,.14,3.09,1.14,1.14,0,0,0,1.49.77,2.35,2.35,0,0,0,1.52-1A3,3,0,0,0,302.93,439.48Zm1.28,8.57v-.21h-.07a1.48,1.48,0,0,0,0,.21Z" transform="translate(-271.13 -391.16)"/><path class="cls-2" d="M311.28,403.25c-.33-.63-.85-.86-1.24-1.22a6.62,6.62,0,0,0-3.1-1.5,6.07,6.07,0,0,1-.84-.21,6.94,6.94,0,0,0-3.32-.32,1.15,1.15,0,0,1-.75-.13c.13-.07.27-.2.41-.21a7.43,7.43,0,0,1,2.49,0c1.09.27,2.18.54,3.26.84a5.1,5.1,0,0,1,1.89,1.05,7.5,7.5,0,0,0,.82.56c-.06-.78-.52-1.34-.54-2a5,5,0,0,1,1.84,2.36,2.25,2.25,0,0,1,.23,1.74,7.41,7.41,0,0,1-2.94-.83.69.69,0,0,1-.22-.23s0-.06,0-.16C309.92,402.83,310.51,403.21,311.28,403.25Z" transform="translate(-271.13 -391.16)"/><path class="cls-2" d="M321.59,420.44a4.37,4.37,0,0,0,.44-1.68,6.56,6.56,0,0,0-.24-3.43,6.62,6.62,0,0,1-.24-.84,7,7,0,0,0-1.38-3,1.22,1.22,0,0,1-.26-.72c.13.08.31.14.39.26a7.24,7.24,0,0,1,1.23,2.16c.31,1.08.62,2.16.9,3.25a4.87,4.87,0,0,1,0,2.15c-.05.28,0,.57-.07,1,.65-.43.9-1.11,1.49-1.47a5,5,0,0,1-1.13,2.77c-.37.42-.66,1-1.39,1.06a7.36,7.36,0,0,1-.75-3,.8.8,0,0,1,.09-.3s.05,0,.14-.08C321.28,419.05,321.24,419.75,321.59,420.44Z" transform="translate(-271.13 -391.16)"/><path class="cls-2" d="M307.56,442.69a4.25,4.25,0,0,0,1.72-.17,6.48,6.48,0,0,0,3.14-1.42,7,7,0,0,1,.7-.51,7,7,0,0,0,2.38-2.35,1.15,1.15,0,0,1,.58-.49c0,.15,0,.34-.11.45a7.53,7.53,0,0,1-1.6,1.91c-.91.66-1.81,1.33-2.73,2a5,5,0,0,1-2,.78,8.29,8.29,0,0,0-.95.27c.64.46,1.35.46,1.9.89a5,5,0,0,1-3-.1c-.52-.21-1.14-.29-1.48-.94a7.61,7.61,0,0,1,2.52-1.73,1.06,1.06,0,0,1,.31,0s.05,0,.12.11C308.75,441.91,308.09,442.13,307.56,442.69Z" transform="translate(-271.13 -391.16)"/><path class="cls-2" d="M286.77,443.73a4.16,4.16,0,0,0,1.44,1,6.52,6.52,0,0,0,3.31.92,6.26,6.26,0,0,1,.87.05,7,7,0,0,0,3.33-.28,1.22,1.22,0,0,1,.76,0c-.12.1-.23.25-.37.28a7.31,7.31,0,0,1-2.45.44c-1.12-.07-2.24-.13-3.36-.23a5,5,0,0,1-2-.7c-.25-.14-.52-.23-.91-.4.19.76.75,1.22.9,1.9a4.91,4.91,0,0,1-2.24-2c-.27-.49-.7-.95-.54-1.67a7.82,7.82,0,0,1,3,.28,1,1,0,0,1,.26.19s0,.06,0,.16C288.18,443.9,287.54,443.63,286.77,443.73Z" transform="translate(-271.13 -391.16)"/><path class="cls-2" d="M273.24,420.77a4.24,4.24,0,0,0-.32,1.7,6.54,6.54,0,0,0,.48,3.41,6.15,6.15,0,0,1,.29.82,7.08,7.08,0,0,0,1.58,2.94,1.14,1.14,0,0,1,.31.7c-.13-.08-.32-.12-.41-.23A7.44,7.44,0,0,1,273.8,428c-.38-1-.77-2.11-1.12-3.17a4.92,4.92,0,0,1-.17-2.16c0-.27,0-.56,0-1-.63.47-.83,1.16-1.39,1.57a5,5,0,0,1,.93-2.84c.35-.45.6-1,1.32-1.16a7.57,7.57,0,0,1,.95,2.9.82.82,0,0,1-.07.31s-.05,0-.13.09C273.65,422.13,273.64,421.43,273.24,420.77Z" transform="translate(-271.13 -391.16)"/><path class="cls-2" d="M288.47,400.35a4.19,4.19,0,0,0-1.73,0,6.58,6.58,0,0,0-3.26,1.1,5.66,5.66,0,0,1-.75.44,7,7,0,0,0-2.6,2.11,1.17,1.17,0,0,1-.62.43c.05-.15.05-.33.15-.44a7.36,7.36,0,0,1,1.78-1.74c1-.57,1.93-1.15,2.91-1.69a4.86,4.86,0,0,1,2.08-.57,9.7,9.7,0,0,0,1-.18c-.59-.52-1.3-.59-1.81-1.07a5,5,0,0,1,3,.39c.5.26,1.11.4,1.38,1.08a7.69,7.69,0,0,1-2.67,1.48,1.15,1.15,0,0,1-.32,0s0-.05-.11-.12C287.21,401,287.89,400.86,288.47,400.35Z" transform="translate(-271.13 -391.16)"/><path class="cls-3" d="M298.86,418.63l-.24,1c-.79.08-1.55.18-2.31.22s-1.54,0-2.37,0a7,7,0,0,0-.45,3.64l4.51.38a4.42,4.42,0,0,0,.33.75c.11.16.49,0,.42.48a1.24,1.24,0,0,1-.37.12c-.39,0-.78,0-1.16,0-.89,0-1.77.1-2.66.15-.54,0-1.08.06-1.62.06a1.56,1.56,0,0,1-1.13-.37,4.88,4.88,0,0,1-.18-2.35c.13-.91.27-1.83.46-2.74.34-1.62.71-3.24,1.06-4.86a5,5,0,0,1,.17-.55c.34-.91.59-1,1.57-.92a20.18,20.18,0,0,0,2.2,0c.57,0,1.15,0,1.73-.08l.28.62a4.67,4.67,0,0,1-2.22.59c-.72.08-1.44.2-2.23.31a6.16,6.16,0,0,0-.22,2.74A14.09,14.09,0,0,1,298.86,418.63Zm-2.66.44a1.82,1.82,0,0,0,1.52-.09A2.85,2.85,0,0,0,296.2,419.07Z" transform="translate(-271.13 -391.16)"/><path class="cls-3" d="M300.38,417.55a16.78,16.78,0,0,1,1.75-2.76,2.26,2.26,0,0,1,3.29-.46,5.43,5.43,0,0,1,1,.79,1.19,1.19,0,0,1-.43,2,.6.6,0,0,1-.87-.47,5.42,5.42,0,0,1,0-.57.9.9,0,0,0-1.31-.81,3.33,3.33,0,0,0-2,2.44c.1.15.17.35.32.45a8.19,8.19,0,0,0,2.42,1.34,3,3,0,0,1,1.92,1.55,1.79,1.79,0,0,1,.2,1.66,1.21,1.21,0,0,0-.1.56,1.2,1.2,0,0,1-.84,1.26,6.91,6.91,0,0,1-2,.65,3.16,3.16,0,0,1-2.59-1.06c-.06-.07-.09-.27,0-.31a.5.5,0,0,1,.38-.17,3.75,3.75,0,0,1,.63.25,3.54,3.54,0,0,0,3.32-.81,1,1,0,0,0,.15-1.46,2.33,2.33,0,0,0-1.54-1.3,1.94,1.94,0,0,0-.79-.05,2.59,2.59,0,0,1-2.32-.77.81.81,0,0,1-.21-.4C300.63,418.59,300.52,418.11,300.38,417.55Zm3.88-2.91h-.09a.18.18,0,0,1,0,.06h.09S304.26,414.66,304.26,414.64Zm-2.86,3.56v.14l.05-.06S301.42,418.23,301.4,418.2Z" transform="translate(-271.13 -391.16)"/><path class="cls-3" d="M291.51,414.26a1.08,1.08,0,0,1,.15,1.09,29,29,0,0,1-1.09,3.77,4.45,4.45,0,0,0-.37,2.67,1.89,1.89,0,0,0-.77,1.16c-.16.75-.39,1.48-.59,2.22a.83.83,0,0,1-.9.55.69.69,0,0,1-.57-.86,10.65,10.65,0,0,1,.53-1.53,1.24,1.24,0,0,0-.13-1.31,11.08,11.08,0,0,1-1.35-2.92,11.6,11.6,0,0,0-.87-1.63,7.51,7.51,0,0,1-.92-2.33c.76-1,.8-1,1.63-.24-.06.24-.26.06-.38.12s-.06.14,0,.19l1.78,3.76a6.49,6.49,0,0,0,1.27,1.74,2.51,2.51,0,0,0,.28-.53c.33-1.3.63-2.62,1-3.93a10.84,10.84,0,0,1,.55-1.39A1,1,0,0,1,291.51,414.26Z" transform="translate(-271.13 -391.16)"/><path class="cls-3" d="M309.89,421.7c-.22-2.95-.42-5.75-.63-8.59a1.51,1.51,0,0,1,1.61,0,1.23,1.23,0,0,1,.71,1.1,10.66,10.66,0,0,1-.18,2.76c-.08.64-.26,1.28-.34,1.93-.1.91-.16,1.82-.24,2.79Zm.73-3.33a7.05,7.05,0,0,0,.08-2.35A4.78,4.78,0,0,0,310.62,418.37Zm-.77-4.78c-.22,1-.19,1.21.17,1.68C310,414.71,309.91,414.15,309.85,413.59Zm1.28,1.06,0,0v-.08Zm-.2-.78c0-.06-.05-.15-.09-.17s-.12,0-.18,0,0,.14.1.17S310.87,413.88,310.93,413.87Z" transform="translate(-271.13 -391.16)"/><path class="cls-2" d="M301.87,430.71l12.3.1c.89,0,1.77.1,2.66.16a1.84,1.84,0,0,1,.55.17s0,.13,0,.2-.05.06-.08.08-.16.07-.22.05a11.33,11.33,0,0,0-3.23-.27c-2.7-.05-5.41-.09-8.11-.11q-6.43-.07-12.88-.11c-1.66,0-3.33,0-5,0a5.42,5.42,0,0,0-1.13.17c-.2,0-.45.35-.56,0s.28-.33.49-.38a8,8,0,0,1,1.59-.25c3.56,0,7.12-.05,10.68.18,1,.06,1.93,0,2.9,0Z" transform="translate(-271.13 -391.16)"/><path class="cls-2" d="M311.5,429.5a1.45,1.45,0,0,1-1.33,0,4.48,4.48,0,0,0-1.7-.29c-4.29-.14-8.57,0-12.86,0-1.66,0-3.32-.09-5-.13a6.45,6.45,0,0,0-2,.05,1.28,1.28,0,0,1-1.24-.37c.18-.32.43-.2.63-.19,2.08.09,4.17.21,6.25.29.81,0,1.62,0,2.43,0,3.36,0,6.72-.06,10.09-.05,1.19,0,2.39.13,3.58.22C310.91,429.05,310.91,429.07,311.5,429.5Z" transform="translate(-271.13 -391.16)"/><path class="cls-3" d="M310.82,425.55a1.52,1.52,0,0,1-.28.48.71.71,0,0,1-.85.09,1.37,1.37,0,0,1-.42-.38c-.33-.39-.33-.69,0-1a.94.94,0,0,1,1.15-.09A1.17,1.17,0,0,1,310.82,425.55Z" transform="translate(-271.13 -391.16)"/></svg>