<svg id="Layer_1" data-name="Layer 1" xmlns="http://www.w3.org/2000/svg" viewBox="0 0 22.36 46.98"><defs><style>.cls-1{fill:#202529;}.cls-2{fill:none;stroke:#010101;stroke-miterlimit:10;stroke-width:0.69px;}.cls-3{fill:#010101;}.cls-4{fill:#eb587b;}</style></defs><path class="cls-1" d="M293,398.14c.87-.16,1.76-.09,2.63-.19h.26l2.31.1c.24,0,.47,0,.67.16s.19.07.3.09l1,.15a.77.77,0,0,1,.54.29c.16.23.46.2.7.28a2.22,2.22,0,0,0,.21-.27c.09-.12.17-.25.27-.4a3.44,3.44,0,0,1-.51-.27,2.53,2.53,0,0,1-.36-.37.65.65,0,0,1-.09-.16.11.11,0,0,1,0-.11.12.12,0,0,1,.11,0c.13.07.25.15.4.25l.41-.63c.18,0,.21.11.2.23a4,4,0,0,1-.05.43l.67-.67c.05.06.12.1.12.14a1.24,1.24,0,0,0,.63,1.09,11.71,11.71,0,0,1,.95.76.2.2,0,0,1,.05.31,2.15,2.15,0,0,1-.24-.18,5,5,0,0,0-1.1-.77,2.57,2.57,0,0,0-.61-.2c-.18,0-.22,0-.27.35.1.06.21.11.31.18l.32.26c.26-.17.48,0,.7.11a4.48,4.48,0,0,1,1.07,1,9.31,9.31,0,0,1,1.36,2.26q.34.84.66,1.68c.24.67.47,1.34.67,2a8.15,8.15,0,0,1,.26,1.19c.09.6.15,1.2.22,1.79a1.22,1.22,0,0,1-.15.93.65.65,0,0,0-.06.37c0,.3,0,.61,0,.91,0,.64.09,1.28.11,1.93,0,1,0,2,.05,3a36.24,36.24,0,0,0,.44,5.2,5.8,5.8,0,0,1,0,1.86,2.77,2.77,0,0,0,0,.76,32.18,32.18,0,0,1,.21,3.92.84.84,0,0,1,0,.32,6.11,6.11,0,0,0-.19,1.36c.14.12.29.23.42.36a.24.24,0,0,1,0,.23c0,.06-.14.09-.21.1s-.12,0-.18-.06c-.44-.17-.88-.36-1.33-.5a10.65,10.65,0,0,1-1.8-.7,1,1,0,0,0-.75-.12.8.8,0,0,0-1-.45c.14.93.27,1.87.4,2.8.05.4.09.81.11,1.22s-.06.41-.39.47a3.79,3.79,0,0,1-.58.05l-1,0c.2.49.78.52,1,.91a1.06,1.06,0,0,1-.35.63,20.76,20.76,0,0,0-1.54,2,14.37,14.37,0,0,1-1.3,1.51,17.69,17.69,0,0,0-1.23,1.49.53.53,0,0,0-.1.54,8.69,8.69,0,0,1,.34,2.16c0,.47.07.94.1,1.41a1.71,1.71,0,0,1,0,.32s-.06.08-.09.08a.24.24,0,0,1-.15-.08,1.11,1.11,0,0,1-.05-.25c-.05-.54-.08-1.07-.13-1.61,0-.38-.07-.77-.13-1.15a1,1,0,0,0-.68-.83,4.36,4.36,0,0,1-2.46-2.16,7.46,7.46,0,0,0-.77-1.18c-.3-.41-.61-.83-.95-1.21a10.07,10.07,0,0,0-.88-.85c-.22-.21-.47-.38-.53-.7.25-.48.74-.71,1.06-1.09-.05-.18-.17-.15-.27-.15h-1a1.1,1.1,0,0,1-.05-.35,12.19,12.19,0,0,0,0-2.7c0-.35,0-.69-.08-1,0-.15,0-.3-.07-.46a1.49,1.49,0,0,0-.7.07c-.72.15-1.42.33-2.14.49a6.28,6.28,0,0,0-1.65.69c-.15.08-.24.24-.37.35a2.82,2.82,0,0,1-.31.21.14.14,0,0,1-.11,0,.14.14,0,0,1,0-.12,1.37,1.37,0,0,1,.15-.21l.47-.51a27,27,0,0,0-.07-3.37,1.15,1.15,0,0,1,0-.19c-.05-1.35-.11-2.7-.14-4.06s0-2.7-.05-4.06c0-1.13,0-2.27,0-3.41,0-.75,0-1.51-.08-2.26a1.09,1.09,0,0,0-.11-.43,1.07,1.07,0,0,1-.1-.68,13.8,13.8,0,0,0,.13-1.93A12.06,12.06,0,0,1,287,406a.86.86,0,0,0,0-.63c-.09.36-.17.65-.24.94-.16,0-.17-.09-.16-.18a5.83,5.83,0,0,1,.73-2.32c.11-.22.23-.45.36-.68l.54-.9a.52.52,0,0,1,.07-.5c.21-.27.42-.55.64-.8a3.34,3.34,0,0,0,.67-.95c.41-.1.75-.25.82-.75,0-.24.3-.38.53-.44a6.48,6.48,0,0,0,1.52-.68,4.58,4.58,0,0,1,1.85-.52c.57,0,1.14-.18,1.72-.25.34,0,.68-.07,1-.08s.69,0,1,0a5.53,5.53,0,0,1,1.9.31l.6.18c-.07.08-.12.18-.17.17a1.06,1.06,0,0,1-.43-.08,4.18,4.18,0,0,0-1.64-.29c-.34,0-.69,0-1,0a14.34,14.34,0,0,0-3,.31,3.15,3.15,0,0,0-1.24.31l-.07,0Zm2.28,5.45-.27.12-.26.13-.26.12-.25.13-.25.14H294l0,0,.08,0,.25-.13.26-.13.26-.13.26-.13.26-.12.07-.07Zm.27-2.06h0l.27-.13.39-.13a1.23,1.23,0,0,0,.19,0,8.58,8.58,0,0,1,2.84-.5,1,1,0,0,0,.71-.26.85.85,0,0,1,1.11-.11.49.49,0,0,0,.17,0c.05-.28,0-.33-.14-.34l-1.54,0a9,9,0,0,0-2.92.43c-.9.28-1.81.54-2.7.85a2.48,2.48,0,0,0-.92.42c-.32.29-.66.56-1,.84a2.81,2.81,0,0,0-.23.32,3.9,3.9,0,0,0,.86-.54c.28-.17.55-.33.84-.48s.55-.24.83-.36l.86-.38.37.28Zm-7.53,4.3.13-.25s.08-.05.1-.09a10,10,0,0,0,1-2.71c0-.08,0-.19-.07-.29a1.79,1.79,0,0,1,.22-.38c.35-.4.71-.8,1.08-1.19s.73-.71,1.1-1.07l.2-.16c-.07,0-.1,0-.11,0a8,8,0,0,0-2.33,1.88.43.43,0,0,0-.09.36s0,.07-.07.1l-.38-.06c-.31.36-.76.6-.87,1.14a.72.72,0,0,0,.58-.48c.14-.27.34-.29.68-.12a3.07,3.07,0,0,0-.52,1.15c-.12.45-.27.89-.4,1.34-.06.2-.1.41-.15.61l-.13.26,0,.06Zm1.05-.74c-.1.08-.07.16,0,.25a.48.48,0,0,1,0,.18c-.2.25-.41.48-.61.72v-.39l0,0s0,0,0,0l0,.09c0,.12-.09.25-.13.38s-.27.13-.2.4l.19-.41h.14a1.39,1.39,0,0,1-.13.8.49.49,0,0,0,0,.5,3.77,3.77,0,0,1,.28-.6,13.5,13.5,0,0,0,1-1.92,1,1,0,0,0,0-.18c.1-.06.18-.12.12-.37l-.13.36-.26.27-.26.26v-.27l.14-.26a3.13,3.13,0,0,0,.26-.25l.79-1.05v.39a.8.8,0,0,0,.67-.57,2.07,2.07,0,0,1,.73-.94l.4-.4c.1,0,.21,0,.23-.23l-.22.24a3.5,3.5,0,0,0-1.23.89,2,2,0,0,0-.28.53l-.18.08a.61.61,0,0,1-.13,0c0-.11-.12-.18-.24-.08a2,2,0,0,0-.8,1.36ZM294,426.4a.37.37,0,0,0,.05.11s0,0,0,0,0-.08,0-.09l-.11,0-.09-.08ZM292.38,399l.39-.12c.05,0,.11,0,0,0l0,0-.39.13-.27.12a1,1,0,0,0-.76.38l-.09.06.08-.06.76-.39Zm14.27,5.79a.13.13,0,0,0,0,.06s0,0,0,0l-.05-.08-.12-.39c0-.14,0-.28-.13-.38s0-.07,0-.11,0,0-.05,0,0,0,0,.06a.93.93,0,0,1,.05.1c0,.14,0,.28.14.37A.43.43,0,0,0,306.65,404.83Zm-18.31-.91-.13.38a4.64,4.64,0,0,0-.62,1.51c0,.08,0,.16.18.12a9.76,9.76,0,0,0,.43-1.63c0-.13.09-.26.13-.39l0,0a.06.06,0,0,0,0,0Zm2,2.84s0,.09.05.11a.13.13,0,0,0,.09,0s.05,0,0,0,0-.06-.07-.07h-.11v-.27l.29-.23.65-.6.11.12.07-.08-.14-.07a1.56,1.56,0,0,1,.16-.2.27.27,0,0,0,0-.34l.09-.11.5-.23.45-.19a.13.13,0,0,0,.2.05l.18-.14v-.16a1.73,1.73,0,0,0,.32-.2,5.82,5.82,0,0,1,2-1.16c.24-.08.47-.19.71-.28l.12.23a2.58,2.58,0,0,0,.77-.43l-.9.21a.58.58,0,0,1,.13-.14,6.85,6.85,0,0,1,2.52-.93c.59-.08,1.19-.13,1.78-.19a2.49,2.49,0,0,0,.79-.12v-.38c-.29,0-.54.08-.79.09h-1.74a7.86,7.86,0,0,0-2.2.42c-.1,0-.21.09-.09.26l.29-.06c.46-.11.92-.23,1.38-.32a9.51,9.51,0,0,1,1.07-.16c.11,0,.22,0,.21.17s-.07.06-.11.06a9.65,9.65,0,0,0-2.7.53,8.86,8.86,0,0,0-3.06,1.59c-.29.22-.58.44-.88.65a2.87,2.87,0,0,1-.4.18,3.2,3.2,0,0,0,.57-.87l-.4.08c.1-.24.32-.34.51-.47l.57-.41a8.23,8.23,0,0,1,1.39-1c.07,0,.21,0,.18-.22-.58.26-1.15.51-1.7.79a7.52,7.52,0,0,0-.69.46c-.14.41-.58.55-.79.9a1.28,1.28,0,0,1-.32.29l-.27-.19c-.18.16-.38.28-.42.53l.77,0a5.38,5.38,0,0,1-.55.52,6.47,6.47,0,0,0-1.79,2.7l.25.11-.27.78-.1.17.08,0v-.2c.11-.09.23-.17.33-.26s.17-.24-.06-.5c.2-.32.29-.71.66-.9C290.15,406.78,290.26,406.77,290.37,406.76Zm6.2-.72.26,0,0-.08-.23.13-.06,0,0,0Zm-3.16-7.64a1,1,0,0,0-.65.13.7.7,0,0,0-.57.25l.56-.26c.22,0,.46,0,.65-.12s.22.05.32-.13Zm2.28,4.8,0,0,0,0c-.23-.08-.23-.08-.4.07Zm6.57.71a1.21,1.21,0,0,0-.05-.18l0,0s0,.06,0,.07a.74.74,0,0,0,.12.13c.1.23.1.23.41.39C302.47,404.09,302.37,404,302.26,403.91Zm-9.81,1.33a.36.36,0,0,0-.44.18c.21,0,.36,0,.44-.19s.21-.1.28-.29Zm4.51,0a1.05,1.05,0,0,0-.53.47c.27-.15.45-.25.54-.45a.48.48,0,0,0,.39-.36A.66.66,0,0,0,297,405.26Zm-9.16-.85a.57.57,0,0,0,.17-.64c-.05.22-.11.43-.16.65l0,.1Zm19.68,9.46a1.13,1.13,0,0,0,0,.18s.05,0,.08.06,0-.05,0-.06a.87.87,0,0,0-.07-.17,2.32,2.32,0,0,0,0-.37c0-.12,0-.24-.05-.36A.91.91,0,0,0,307.48,413.87Zm-3.42-7.51c0,.22,0,.22.22.47-.12-.24-.17-.36-.23-.47a1.33,1.33,0,0,0-.25-.77,3.5,3.5,0,0,0-.13-.56,8.22,8.22,0,0,0-1.69-2.4,1.36,1.36,0,0,0-.27-.13c0,.28,0,.47.26.6a2.33,2.33,0,0,1,.76.86c.23.38.44.78.66,1.17.1.19.19.39.42.45a.32.32,0,0,0,0,.42C303.89,406.11,304,406.24,304.06,406.36Zm2,22.61a.33.33,0,0,0,.1.06s.06,0,.09,0-.06-.05-.09-.05-.07,0-.11,0c-.12-.15-.19-.36-.49-.48.05.16.05.26.1.29A2.43,2.43,0,0,0,306.05,429Zm-18.77-23.79c.11-.34.21-.68.32-1a.07.07,0,0,0,0-.06l-.13,0c.11.35-.17.52-.29.71.06.18.09.3.13.41l-.1.26.06,0Zm.48,21v.06l0-.06v-.57a5.42,5.42,0,0,0,0-.57c0-.16.07-.34-.08-.51,0,.34,0,.65,0,1S287.73,426,287.76,426.22Zm3.08.93c.25-.21.26-.52.35-.8s0-.26-.19-.38c-.06.43-.11.81-.15,1.19l-.05,0v0Zm17-.35,0-1a1.7,1.7,0,0,0,0,1c.05.63.09,1.26.14,1.89a5.64,5.64,0,0,0-.12-1.83A.09.09,0,0,0,307.87,426.8Zm-5.54-26.36-.06-.05c-.08-.15-.16-.3-.41-.26a1.93,1.93,0,0,0-.05.76c.21.23.42.48.65.71a.55.55,0,0,0,.32.18,1,1,0,0,1,.76.52,7.29,7.29,0,0,1,1.1,2.17c.08.26.17.51.26.78a.36.36,0,0,0,.11-.44c-.21-.68-.42-1.36-.65-2a3.08,3.08,0,0,0-.61-1.05c-.06-.08-.15-.18-.15-.27,0-.26-.21-.36-.32-.53s-.41,0-.59-.13l-.15-.16A.23.23,0,0,0,302.33,400.44Zm.34,2h0a.84.84,0,0,0-.11-.36,5.27,5.27,0,0,0-.76-.8c-.14.08-.12.17-.07.23l.6.65C302.44,402.3,302.56,402.38,302.67,402.47Zm3.86,16.94c0,.68.12,1.35.19,2a5,5,0,0,0-.2-2c0-.49,0-1,0-1.47s-.08-1-.12-1.53a.14.14,0,0,0,0-.06h0a.53.53,0,0,0,0,.12c.06.92.11,1.83.17,2.75A1.34,1.34,0,0,0,306.53,419.41Zm-8.91-15.81a5.82,5.82,0,0,0,2.27-1.32c-.72.09-1.08.44-2.26,1.33l-.07.06Zm-9.2,5.08c.12-.34.26-.68.35-1a1.55,1.55,0,0,1,.43-.83,2,2,0,0,0,.53-1.05c-.36.19-.37.18-.44.32a5.87,5.87,0,0,0-.87,2.59s0,0,0,0l0,0Zm18.3,2.1c0-.16,0-.34-.13-.57l.14.57,0,.5-.38,0c.05.92.1,1.82.15,2.71.12-.66,0-1.34.17-2a5,5,0,0,1,.12.86l.12.89a7.77,7.77,0,0,0,0-2.1A1.75,1.75,0,0,0,306.72,410.78Zm-1.62-6.85a.13.13,0,0,0,0-.06l0,0,.06.07c0,.21.06.42.11.63.13.59.27,1.17.41,1.75,0,.12.07.24.1.35l.48,0a9.79,9.79,0,0,0-.53-1.85A2.36,2.36,0,0,0,305.1,403.93Zm-16.83,8a1.07,1.07,0,0,0-.15.68c0,1.48,0,3,0,4.45a1.21,1.21,0,0,0,0,.19c0,.06,0,.16.07.19a1.94,1.94,0,0,0,.17-.95c0-1.22,0-2.45,0-3.67,0-.3,0-.6-.08-.9,0-.05.05-.09,0,0S288.28,411.87,288.27,411.92Zm7.81-8.33a13.24,13.24,0,0,0-2.72,1.28.74.74,0,0,0-.2.16c-.06.07-.2.09-.14.26.19-.12.36-.24.55-.34l1.21-.56a.43.43,0,0,1,.53.1,3.17,3.17,0,0,0-.44.12,7.76,7.76,0,0,0-1.86,1c-.06.05-.17.07-.09.23a5.77,5.77,0,0,0,.81-.34c.54-.32,1-.67,1.57-1a3.81,3.81,0,0,0,1.72-1l-1.17.5.22-.42c.08,0,.2,0,.23-.09a2.41,2.41,0,0,1,1.22-.89,7.93,7.93,0,0,1,1.62-.61c.39-.08.77-.18,1.17-.25a2.84,2.84,0,0,0-.58,0,3.5,3.5,0,0,0-1.14.15,9.1,9.1,0,0,1-1.14.41.44.44,0,0,0-.24.18.9.9,0,0,1-.5.38c-.19.08-.38.19-.54.27Zm-6.45-.84a2.64,2.64,0,0,1,.33-.47,3.16,3.16,0,0,1,.54-.31.39.39,0,0,0,.1-.08,19.14,19.14,0,0,1,3.33-2.08c.3-.15.6-.33.89-.49l.79-.29c.08,0,.17,0,.19.14-.15.19-.42.22-.64.33a2.68,2.68,0,0,0-.75.41,4.51,4.51,0,0,0,1.37-.35,5.57,5.57,0,0,1,1.27-.42,3.19,3.19,0,0,1,1.44-.08,6.19,6.19,0,0,0,1.22,0,1.63,1.63,0,0,0-.72-.18c-.34,0-.66.12-1-.13-.08-.07-.25,0-.38,0H297c0-.17.13-.18.22-.18a5.51,5.51,0,0,1,1.67.09c.08,0,.21.07.24-.13a16.92,16.92,0,0,0-2.24-.19,1.44,1.44,0,0,1-.51,0,3,3,0,0,0-1.71,0,1.14,1.14,0,0,0-.19.1c.48,0,.92-.19,1.4-.08a.85.85,0,0,1,0,.09c-.59.27-1.26.2-1.86.43.24.34.62-.09.89.17a2.45,2.45,0,0,1-.08.29,2.46,2.46,0,0,0-1.07.17,10.08,10.08,0,0,0-2.84,1.6,12.74,12.74,0,0,0-.94.87,1,1,0,0,0-.34.8l0,0,0,0ZM305.29,427a.38.38,0,0,1,.14.34c0,.17-.06.34-.07.51a1.05,1.05,0,0,0,0,.31s.07.06.1.07.11,0,.11,0a3.39,3.39,0,0,0,.08-.44c0-1.18.09-2.36.12-3.54,0-.49-.05-1-.07-1.47,0-.28,0-.56,0-.84,0-1,0-2,.05-3,0-.12,0-.25,0-.37a.84.84,0,0,0-.11.43c0,1.17,0,2.35,0,3.53a3.52,3.52,0,0,1-.15,1.33,2.36,2.36,0,0,0-.09.7c0,.58-.06,1.16-.08,1.74,0,.26,0,.51,0,.77l-.41.28a3.06,3.06,0,0,1-.09-.49c0-.73,0-1.46,0-2.18,0-.23,0-.46,0-.68a18.88,18.88,0,0,0-.14,2.25c0,.36,0,.73,0,1.09,0,.19.19.15.24.26l0,.68a.58.58,0,0,0,.2-.34Zm-4.15-24.27a2.93,2.93,0,0,1-.16.26,16,16,0,0,1-1.11,1.33,7.39,7.39,0,0,1-1.47,1.15c-.56.3-1.15.57-1.74.83a.5.5,0,0,1-.3.09,1.37,1.37,0,0,0-1,.27c-.06,0-.15,0-.24,0s0-.12,0-.16,0-.12.05-.21c-.59-.09-.91.47-1.43.55l-.12-.43-.93.37a2.79,2.79,0,0,1-.59.26.93.93,0,0,0-.61.43,6.44,6.44,0,0,1-.87,1l-.34-.08a15.38,15.38,0,0,0-.27,2.77l.06,1.09c.05.8.08,1.59.17,2.38a11.61,11.61,0,0,0,1.24,3.84,4,4,0,0,0,.46.7,7.42,7.42,0,0,0,1.81,1.63,4.56,4.56,0,0,0,2.36.77q1.54,0,3.09,0a2.86,2.86,0,0,0,1.31-.27,9.21,9.21,0,0,0,2.13-1.75,3.31,3.31,0,0,0,.59-1.13,7.74,7.74,0,0,0,.61-2.37c.07-.87.17-1.75.24-2.63a5.12,5.12,0,0,0,0-1,8.73,8.73,0,0,1-.07-1.35,15.24,15.24,0,0,0-.22-4.1,1.23,1.23,0,0,0,0-.19,1.36,1.36,0,0,0-.48-.88c-.17-.13-.33-.28-.48-.42a2.78,2.78,0,0,1-.45-.46,8.68,8.68,0,0,1-.89-1.64C301.38,403.27,301.29,403.07,301.14,402.74ZM292.41,434c.09.12.15.21.22.29.39.43.8.84,1.18,1.28a8.31,8.31,0,0,1,1.56,2.11,3.07,3.07,0,0,0,.23.39,3.81,3.81,0,0,0,2,1.62.61.61,0,0,0,.21,0,3.05,3.05,0,0,0-.41-.94c-.21-.32-.39-.66-.58-1s-.18-.44-.3-.64a17.91,17.91,0,0,1-1-2.5c-.32-.89-.56-1.81-.84-2.71a15.64,15.64,0,0,1-.8-4.29,2.08,2.08,0,0,0-.13-.37l-1.43.66a2.4,2.4,0,0,0-.27.16,2.89,2.89,0,0,0,0,1.17,14,14,0,0,1,.11,2.5c0,.21,0,.42,0,.69a7.94,7.94,0,0,0,.85,0,1.83,1.83,0,0,1,.92.05C293.54,433.07,292.83,433.35,292.41,434Zm10.12,0c-.12-.12-.18-.21-.26-.28l-.77-.57a2.93,2.93,0,0,1-.26-.19c-.06-.06-.12-.15-.1-.22s.14-.15.25-.14a.58.58,0,0,1,.19,0,5.63,5.63,0,0,0,1.42,0,3,3,0,0,0,.49-.1,3.34,3.34,0,0,0,0-1.37c-.06-.45-.11-.9-.19-1.34s-.19-1.05-.31-1.58a.85.85,0,0,0-.23-.44,1.68,1.68,0,0,0-.89-.39,1.44,1.44,0,0,0-.09.24c-.09.44-.17.88-.24,1.33-.12.65-.17,1.32-.33,2a24.68,24.68,0,0,1-1.71,4.65c-.3.62-.66,1.2-1,1.8-.16.3-.33.6-.52.89a.72.72,0,0,0,.15,1,2.38,2.38,0,0,0,.51-.49,11.34,11.34,0,0,1,.85-1,14.1,14.1,0,0,0,1.57-1.88c.34-.46.7-.92,1.05-1.38C302.26,434.38,302.38,434.2,302.53,434Zm-5.68,2.77a1.6,1.6,0,0,0,.07-.28c0-.86.08-1.72.15-2.57s.09-1.8.15-2.7c0-.6.11-1.19.17-1.79,0-.28.08-.55.1-.83a.3.3,0,0,0-.23-.36c-.24.18-.32.57-.73.65-.16-.11-.35-.24-.53-.38l-1.3-1.06c-.13-.1-.24-.25-.48-.18a5.3,5.3,0,0,0,0,.69,16.43,16.43,0,0,0,.55,3c.32,1.09.65,2.18,1,3.26.08.27.18.53.28.79s.31.8.47,1.2A.84.84,0,0,0,296.85,436.75Zm-.93-11.24a5.08,5.08,0,0,0,2,.77,1.09,1.09,0,0,0,.57-.06,5.06,5.06,0,0,0,1.31-.8,1.15,1.15,0,0,0,0-.26,19.36,19.36,0,0,1,0-3c0-.08-.05-.16-.08-.26-1.34,0-2.66,0-4,0,0,.09-.08.12-.08.16C295.77,423.25,295.85,424.36,295.92,425.51Zm3,10.31.13,0a22.17,22.17,0,0,0,1.16-2.7,20,20,0,0,0,.82-2.84,12.33,12.33,0,0,0,.36-2.87c-1.18,1.07-1.71,1.39-2.36,1.44l-.5-.87a.51.51,0,0,0-.26.62c.09.44.18.88.25,1.32a15.32,15.32,0,0,1,.27,2.94c0,.64,0,1.29,0,1.93C298.84,435.15,298.9,435.48,298.94,435.82Zm-2.39-7.35a5.32,5.32,0,0,0,1.08-1.85c-.37-.15-.75-.29-1.12-.46s-.71-.37-1.09-.58c-.32.34-.61.64-.89,1-.09.1,0,.26.09.39.34.3.67.6,1,.89S296.23,428.25,296.55,428.47Zm1.83-1.76a4.53,4.53,0,0,0,1,1.78,5.75,5.75,0,0,0,.62-.29,4.07,4.07,0,0,0,1.12-.95.4.4,0,0,0,.09-.47,2.05,2.05,0,0,0-1.07-1.08Zm8.93.62a8.76,8.76,0,0,0,.12-2.75,35.21,35.21,0,0,1-.28-4.23,4.64,4.64,0,0,0,0-.65,12.3,12.3,0,0,1-.12-1.92,1.19,1.19,0,0,0-.07-.5,2,2,0,0,1-.11-.76V416l0-.45a1.12,1.12,0,0,0-.06-.45,2,2,0,0,0-.12.62c0,.35.05.69.07,1a37.53,37.53,0,0,1,.24,4.62,1.14,1.14,0,0,0,0,.26l.09,1.54c0,.51.06,1,.08,1.54,0,.36,0,.72,0,1.09A4.37,4.37,0,0,0,307.31,427.33Zm-1.18,1.11.06-.49c0-.18,0-.38.22-.55,0,.16,0,.26,0,.36,0,.27,0,.55,0,.83,0,.08,0,.18.17.15,0-.07,0-.16,0-.24a4,4,0,0,1,.13-1.14,1.26,1.26,0,0,0,0-.39c0-.38,0-.77.05-1.15s.07-.56-.14-.8a.48.48,0,0,1-.06-.24c0-.6-.05-1.2-.09-1.8a4.07,4.07,0,0,0-.13-.68,8.34,8.34,0,0,0-.09,1.49,17.06,17.06,0,0,1-.39,3.83A.87.87,0,0,0,306.13,428.44Zm-16.39-25.06a2.36,2.36,0,0,0,.26-.17c.31-.24.6-.5.9-.73a10.85,10.85,0,0,1,2.6-1.55c.67-.26,1.33-.57,2-.78a2.11,2.11,0,0,0,.28-.21,2.14,2.14,0,0,0-.48,0c-.49.13-1,.26-1.48.44a10.37,10.37,0,0,0-1.21.59c-.19.11-.31.36-.6.24,0,0-.12,0-.17.07A11.53,11.53,0,0,0,290,402.7.94.94,0,0,0,289.74,403.38Zm18,20.95a.9.9,0,0,0,.08-.23,2.21,2.21,0,0,0,.05-.51c0-.55-.06-1.11-.1-1.67s-.07-1.37-.14-2.05-.21-1.65-.31-2.48a.93.93,0,0,1,0-.44,2.81,2.81,0,0,0,.09-1.15.45.45,0,0,0-.22-.4A75.65,75.65,0,0,0,307.75,424.33Zm-2.58-21.41a3.17,3.17,0,0,0-.75-1.51.39.39,0,0,1-.11-.15,2.22,2.22,0,0,0-.9-1.14.72.72,0,0,0-.76-.23.18.18,0,0,1-.17-.05.5.5,0,0,1-.15-.26.2.2,0,0,1,.22-.19l.4,0a.44.44,0,0,0-.45-.26,1.43,1.43,0,0,0-.47.18.24.24,0,0,0,0,.34,2,2,0,0,0,.57.41,1.9,1.9,0,0,1,.68.46A13.16,13.16,0,0,1,305.17,402.92Zm-2.13-.57a2,2,0,0,0,0,.24c.12.25.25.5.38.74a10.81,10.81,0,0,1,1.1,2.68c.11.61.19,1.22.28,1.84,0,.08,0,.17.12.17a8.29,8.29,0,0,0-.57-3.52A4.27,4.27,0,0,0,303,402.35Zm1.27,8,.21.09a.6.6,0,0,1,.41.7,2.51,2.51,0,0,1-.47,1.45.92.92,0,0,0,0,1,2.25,2.25,0,0,0,.34-.76c.07-.3.16-.58.23-.87s.19-.8.24-1.2a1.54,1.54,0,0,0-.08-.63.36.36,0,0,0-.47-.23A.47.47,0,0,0,304.31,410.34Zm-14.53,13.8c0-.53,0-1.05,0-1.58a.87.87,0,0,0-.17-.47.8.8,0,0,1-.17-.53l-.06-3.53c0-.19,0-.37,0-.55a12.76,12.76,0,0,0-.07,2.76,20,20,0,0,1,.08,2.05A4.55,4.55,0,0,0,289.78,424.14Zm13.9-24.7-.11.08a8.46,8.46,0,0,0,.55.91c.24.3.48.6.71.91a1.07,1.07,0,0,1,.24.37c.11.66.44,1.25.58,1.89,0,.1.05.22.19.23s.06-.08.05-.11a9.2,9.2,0,0,0-.51-1.72.93.93,0,0,1-.14-.36,1.69,1.69,0,0,0-.41-.85c-.23-.3-.45-.62-.69-.91S303.83,399.59,303.68,399.44Zm-4.51,3.8-.07-.06c-.89.47-1.78.94-2.66,1.42a.74.74,0,0,0-.47.5c0,.1-.15.19-.23.28s-.16.08-.1.21c.47.12.51-.33.67-.55a.84.84,0,0,0,.55-.19,7.64,7.64,0,0,1,1.07-.71,7.41,7.41,0,0,0,1.06-.73A1,1,0,0,0,299.17,403.24Zm8,5.12c.08-.14.18-.25.18-.36a4.4,4.4,0,0,0-.28-1.9c-.12-.29-.17-.34-.59-.55C306.74,406.5,307,407.41,307.2,408.36ZM288,428.56c.34-.5.19-1.07.28-1.61s.08-1.11.13-1.67a6.13,6.13,0,0,0-.05-1.6c-.09,1-.16,2.05-.24,3.08a1.12,1.12,0,0,1-.08.56A1.49,1.49,0,0,0,288,428.56Zm1.6-18.44c-.17-.17-.2-.18-.29-.14a1.05,1.05,0,0,0-.54.61,2.47,2.47,0,0,0,.6,2.48,1.46,1.46,0,0,0,.33.17c.12-.27.09-.44-.14-.58a1.72,1.72,0,0,1-.77-1.21,1.13,1.13,0,0,1,.33-1.06A2.48,2.48,0,0,1,289.6,410.12ZM300.3,403c-.85.69-1.6,1.34-2.31,2a.44.44,0,0,0,0,.18A5.18,5.18,0,0,0,300.3,403Zm5.25,14.36a7.32,7.32,0,0,0,0-2.24,8.11,8.11,0,0,1-.08-1.21c0-.41,0-.82,0-1.22,0-.21-.05-.42-.07-.65a.33.33,0,0,0-.18.36,3.65,3.65,0,0,1,.06,1.09,2.27,2.27,0,0,0,0,.45,13.57,13.57,0,0,1,.21,2.3Zm-16.75,5c-.22.11-.17.24-.16.36a21.31,21.31,0,0,1-.2,5.11.29.29,0,0,0,.1.36,3.14,3.14,0,0,0,.21-.91,6.43,6.43,0,0,1,0-.76l.09-3.78C288.83,422.55,288.81,422.44,288.8,422.28Zm.93-9.94a2.88,2.88,0,0,0,0-.46c0-.36-.05-.72-.08-1.08a.24.24,0,0,0,0-.12s-.08-.1-.14-.11a.24.24,0,0,0-.16.05.74.74,0,0,0-.15.21A1.26,1.26,0,0,0,289.73,412.34Zm9-12.79c.39.07.7.14,1,.17a4.48,4.48,0,0,0,1.59-.1s.05-.1.09-.17a1.22,1.22,0,0,0-.68-.18c-.08,0-.19,0-.22.1a.28.28,0,0,1-.38.13A2.53,2.53,0,0,0,298.77,399.55Zm5.28,24.3-.05,0,.06,3.31s.05.06.07.09A10,10,0,0,0,304.05,423.85Zm-13.92,3.73a2.91,2.91,0,0,0,.54-1.34,2,2,0,0,0-.14-1.29c0,.06,0,.08,0,.1-.06.43.1.91-.28,1.26,0,0,0,0,0,.06C290.18,426.73,290.16,427.09,290.13,427.58Zm15.49-19c0,.43,0,.84,0,1.24a4.17,4.17,0,0,0-.35-2.63c0,.41-.05.83-.07,1.24Zm-.41,7.11a4.48,4.48,0,0,0,.05,2.15A4.91,4.91,0,0,0,305.21,415.68Zm-.57,4.81a19.42,19.42,0,0,0-.16,3.23A12.45,12.45,0,0,0,304.64,420.49Zm1.29,1,.07.07a.41.41,0,0,0,.07-.17,13.48,13.48,0,0,0,0-3.11Zm-14.24-1.78c.07.53.15,1.05.19,1.58s.06,1.05.08,1.63A8.41,8.41,0,0,0,291.69,419.7Zm13.36.78-.05,0c0,.61-.09,1.22-.13,1.84a4.34,4.34,0,0,0,0,.51c0,.07,0,.17.16.13C305,422.12,305.05,421.3,305.05,420.48Zm-14.76-.93a7.06,7.06,0,0,0-.13-2.67C290.2,417.77,290.25,418.66,290.29,419.55Zm-.54,6.77a2.3,2.3,0,0,0,0-.37c0-.42-.1-.84-.16-1.26,0-.06-.06-.1-.11-.17A3.15,3.15,0,0,0,289.75,426.32Zm14.47-5.53a2.4,2.4,0,0,0,0,1.56A3.89,3.89,0,0,0,304.22,420.79Zm-8.38-16.21c-.59.19-1.45.75-1.43.95l.31.06.53-.5A2.72,2.72,0,0,0,295.84,404.58Zm-7.09,15.67h.05c0-.53.05-1.06.06-1.59a3.35,3.35,0,0,0-.05-.63,1.6,1.6,0,0,0-.1-.31l-.06,0ZM306,409.14c0,.76,0,1.44,0,2.2A2.8,2.8,0,0,0,306,409.14Zm-1.65,2.92c.18-.05.19-.22.21-.35s0-.51,0-.76c0,0-.06-.08-.09-.08s-.13,0-.14.08A2.19,2.19,0,0,0,304.34,412.06Zm3.21,17.23-.19-.5-.4-.1-.08-.55c0,.28,0,.45,0,.62s0,.21.09.22.23.21.31.37S307.44,429.43,307.55,429.29Zm-9.9-29.38a4,4,0,0,0-2.14.68Zm-4.46-.57a3.74,3.74,0,0,0-1.6.84l.08.06,1.51-.82S293.18,399.39,293.19,399.34Zm-1.77,24.59a2.31,2.31,0,0,0,0,1.49A5.34,5.34,0,0,0,291.42,423.93Zm-3.22-2.8.1,0c0-.13,0-.25,0-.38,0-.55-.08-1.1-.13-1.65,0-.07,0-.18-.13-.15C288.09,419.69,288.15,420.41,288.2,421.13Zm1.81-.83.1,0c0-.56-.07-1.13-.11-1.7a.09.09,0,0,0,0-.05h0c0,.54,0,1.07,0,1.59C289.94,420.19,290,420.25,290,420.3Zm1.35-13.93a1.75,1.75,0,0,0,.93-.61c-.08,0-.14-.1-.18-.09A1.23,1.23,0,0,0,291.36,406.37ZM287,408.52c.24-.86.25-1.09,0-1.39A5.94,5.94,0,0,0,287,408.52Zm16.54,18.9,0-.82V426A1.37,1.37,0,0,0,303.58,427.42Zm-14.43-4.36h0c0,.74,0,1.48,0,2.22h0Zm-.64-6.41h.05c0-.74,0-1.48,0-2.22h-.05C288.53,415.16,288.52,415.9,288.51,416.65Zm2.17,6.11a4.07,4.07,0,0,0,.14,2A14.2,14.2,0,0,0,290.68,422.76Zm-3.16-14.32a2.58,2.58,0,0,0-.17,1.62C287.41,409.43,287.46,408.94,287.52,408.44Zm20.75,19.09a7.29,7.29,0,0,0-.15-1.79c0,.05-.05.07-.05.09l.09,1.48S308.2,427.37,308.27,427.53Zm-2.22-9.83a1.63,1.63,0,0,0-.15-1.3A4.37,4.37,0,0,0,306.05,417.7Zm-18.8,8.88a4.46,4.46,0,0,0,.19,1.68c0-.58-.15-1.05-.08-1.53C287.37,426.71,287.32,426.67,287.25,426.58Zm19.24-17.47h.14a2.35,2.35,0,0,0-.27-1.18C306.4,408.33,306.45,408.72,306.49,409.11Zm-18.59.21h.1l.24-1.31a.07.07,0,0,0,0,0s0,0-.09,0Zm-.62,15.3h-.14a5.29,5.29,0,0,0,0,1.19c.06-.34.11-.68.14-1C287.33,424.74,287.29,424.68,287.28,424.62Zm16.6-4.52h0c0,.16,0,.33,0,.5s0,.34,0,.51,0,.29,0,.44h.05C303.87,421.06,303.87,420.58,303.88,420.1Zm-16.32.81a.83.83,0,0,0-.12-.88C287.47,420.35,287.38,420.65,287.56,420.91Zm3.92,6.36a1.63,1.63,0,0,0,.21-1.08A1.9,1.9,0,0,0,291.48,427.27Zm1.73-3c0,.31-.07.62-.09.93,0,.08,0,.17.15.13A2,2,0,0,0,293.21,424.22Zm-3.9-23.29c.54-.28.58-.32.58-.72A2.83,2.83,0,0,0,289.31,400.93ZM286.88,413a4.29,4.29,0,0,0,0-1.29Zm2.79,8.42a5.3,5.3,0,0,0,0-1.32A5.83,5.83,0,0,0,289.67,421.42Zm-2.32-3.62h0v-1.18h0Zm1.87-4.28c.08.24.14.37.18.51s0,.29.06.43C289.55,413.73,289.55,413.73,289.22,413.52Zm1.73-6.27c-.33.42-.33.42-.2.78A.86.86,0,0,0,291,407.25Zm11.6,19.29c-.11.3-.13.48,0,.63s.13.05.22.09C302.83,427,302.7,426.82,302.55,426.54Zm2.55-1.37h0c0-.37,0-.74,0-1.11h0C305.1,424.43,305.1,424.8,305.1,425.17Zm.21-3.26h-.06a5.42,5.42,0,0,0,0,.57c0,.16-.08.34.05.51Zm-4.27.95-.05,0V424h0C301,423.61,301,423.24,301,422.86Zm1.62,1.6h0c0-.34,0-.68,0-1h0C302.67,423.78,302.66,424.12,302.66,424.46Zm-.61-.93h0v.85h0ZM287,419.28h0v-.75h0Zm15.4-14.66c.15.26.21.43.42.5C302.8,404.8,302.8,404.8,302.37,404.62Zm-11.43,23.24a.45.45,0,0,0,.51-.11C291,427.65,291,427.65,290.94,427.86Zm1.18-2.74a1,1,0,0,0,0,.74C292.11,425.61,292.12,425.36,292.12,425.12Zm13.81-20.77c-.1.34-.1.34.17.55,0-.13,0-.23-.07-.33S306,404.43,305.93,404.35Zm-15.25,16.59h0c0-.25,0-.49,0-.74h0Zm-.83-3.73c-.2.16-.09.26-.09.36a1.67,1.67,0,0,0,.05.31l.07,0Zm-.79,11.15-.25-.45c0,.21,0,.34-.05.5ZM287,417.7h0v-.6h0Zm3.35,5.43h-.05c0,.22,0,.45,0,.67h.05C290.32,423.58,290.32,423.35,290.33,423.13Zm17.77-.75h0c0-.2,0-.4,0-.61h0Zm-2.24-8.18h-.06c0,.18,0,.36.05.69Zm-2.93,11.55a1.08,1.08,0,0,0-.14-.64C302.74,425.37,302.7,425.54,302.93,425.75ZM306,412.44h0v-.53h0Zm-1.5-4.53a.51.51,0,0,0-.12-.47C304.33,407.65,304.28,407.8,304.48,407.91ZM290.07,421H290l0,.48h0Zm13.32-17,.1,0a2.4,2.4,0,0,0-.16-.27s0,0-.05,0,0,0,0,0ZM301,402c0-.05.06-.07.06-.09s.05-.21-.08-.27H301a1.31,1.31,0,0,0,0,.28S301,401.93,301,402Zm-10.62,25.67c-.08.15-.13.21-.16.28s0,.07.05.1.08,0,.09,0A2.27,2.27,0,0,0,290.41,427.65Zm15-8.47h0v.17l0,.14s0-.08,0-.11Zm-15.15,2.13,0,0V421h0Zm-3,1.94h.07l0-.37h0Zm10.76,10.4h.05v-.38h0ZM286.9,411h0l0-.22h0Zm14.78,11.52h-.09l0,.3h.06Zm2.74-6.27s0,0,0-.06a1.11,1.11,0,0,0,0-.17h0a.45.45,0,0,0,0,.16S304.39,416.19,304.42,416.21Zm.17,11.88-.13.05a.39.39,0,0,0,.08.14s.09,0,.14,0Zm-16.74-20,0-.24a.14.14,0,0,0,0-.06s-.06,0-.06.06S287.83,407.91,287.85,408Zm19.72,1.29,0-.08a.56.56,0,0,0,0-.12ZM289,413.6c0-.14,0-.19,0-.25a.17.17,0,0,0,0-.05s-.06,0-.06.06S289,413.46,289,413.6Zm18.93,6.19h0V420l0,0A.66.66,0,0,0,307.9,419.79Zm-13.82,1.88-.07-.08a.25.25,0,0,0,0,.12s0,.05.06.08Zm9.23,4c0-.14,0-.19,0-.25a.14.14,0,0,0,0-.06s-.06,0-.06.06A2.35,2.35,0,0,0,303.31,425.71Zm-8.44-.23s-.07,0-.08.07,0,.06,0,.09.08,0,.09-.07S294.88,425.51,294.87,425.48Zm-3.42-18.69-.07-.06s-.06.06-.06.09,0,0,.06.06Zm16.24,21.13h0v.21h0Zm-3.78-.17,0,.11a.93.93,0,0,0,.1-.1s0-.06-.06-.09ZM292.34,405s-.07-.06-.08,0a.31.31,0,0,0-.07.09s.07.06.08.05A.31.31,0,0,0,292.34,405Zm-4.49,5.15v-.06s0,0,0,.05,0,0,0,.06Zm17.77.9v0Zm-12.28-6.46,0,0-.06.09.05,0Zm13,2.78,0-.11s-.05,0-.05.06a.18.18,0,0,0,0,.09ZM298,431.66l0,0,0-.05s0,0,0,.05A.05.05,0,0,0,298,431.66Zm8.84-23.21v0Zm-19,9.17-.08-.06-.07.09s.07.06.08.05A.27.27,0,0,0,287.79,417.62Zm3.34,1.26,0-.05,0,0,0,.06Zm10.15,6.46,0-.09s0,0,0,.06,0,.06,0,.09Zm-5.94-.21.08.07,0-.05a.27.27,0,0,0-.08-.07Zm1.78-25.7h.06s0-.05-.05-.05,0,0-.06,0Zm1.37,33.35v0a.05.05,0,0,0,0,0v.05Zm-3.62-8.18,0,.1h.1s0,0,0-.05Zm-2.55,2.87v-.06h-.1v.05Zm1.59-3h0v.06h0Zm-5.92-.2,0,.09h0Zm12.25-.68,0,.05s0,0,0,.07l.05-.06A.14.14,0,0,0,300.24,423.55Zm1.52,2.89-.06-.07,0,0,.06.07Zm-4.88-26.81h-.05s0,0,.06,0a0,0,0,0,0,.05,0ZM293.22,427v-.05a.25.25,0,0,0-.09,0s0,0,0,.05Zm-2.42-27.08,0,0,0,0s0,0,0,.06Zm7.27,35.51h0l0,0Zm7.39-31.68,0,0,0,0,.05.06Zm-16.22,5.46,0-.08h0ZM289,409l0-.05V409Zm-1.32-.11,0,0h0Zm6.71,15,0,0h-.05Zm-.12-.73,0,.05h0ZM288,407.08V407h0a.13.13,0,0,0,0,.06ZM289.76,428l0,0V428Zm-.9-19.64v0l0,0Zm18.44,2.41,0,0h0Zm-17.56,16.36,0-.05h0Zm-1.09-17.18.05,0-.05,0ZM302,426.11l0,0h0Zm-14.4-19.65,0,0h0Zm4.66.25,0,0v0Zm2-4.22v0h0Zm-4.83.77h0v0Zm-.08,5.42,0,0v0Zm15.4-5.76h0l0-.05Z" transform="translate(-286.32 -397.01)"/><path class="cls-2" d="M300.89,411.28a1.63,1.63,0,0,1,.65.15.61.61,0,0,1,.36.53,1.52,1.52,0,0,0-1.12-.6c-.46,0-.59.26-1,.42A1,1,0,0,1,300.89,411.28Z" transform="translate(-286.32 -397.01)"/><path class="cls-3" d="M303.18,411.51c0,.17-.14.2-.2.31l-.23.27-.47.55-.52-.72.66-.28.33-.13c.12,0,.19-.13.36-.1Z" transform="translate(-286.32 -397.01)"/><path class="cls-2" d="M293.89,411.28a1.63,1.63,0,0,0-.66.15.63.63,0,0,0-.36.53,1.52,1.52,0,0,1,1.12-.6c.46,0,.6.26,1,.42A1,1,0,0,0,293.89,411.28Z" transform="translate(-286.32 -397.01)"/><path class="cls-3" d="M291.66,411.41c.17,0,.24.07.36.1l.33.13.66.28-.52.72-.46-.55-.23-.27c-.07-.11-.19-.14-.21-.31Z" transform="translate(-286.32 -397.01)"/><path class="cls-2" d="M301.14,407.19a4.12,4.12,0,0,0,2.06.69" transform="translate(-286.32 -397.01)"/><path class="cls-2" d="M291.92,408a.73.73,0,0,0,.62-.26l.89-.81" transform="translate(-286.32 -397.01)"/><path class="cls-1" d="M296.34,417.86a.9.9,0,0,0,.83.34,2,2,0,0,0,.86-.35.71.71,0,0,1,.4-.15.42.42,0,0,1,.19.06,1,1,0,0,1,.41,1.1,1.25,1.25,0,0,1-.9.81,1.81,1.81,0,0,1-1.23-.18,2.29,2.29,0,0,1-.79-.66.81.81,0,0,1-.2-.5.35.35,0,0,1,.33-.37" transform="translate(-286.32 -397.01)"/><path class="cls-4" d="M302,415.12l.17-.09-.16.07a.84.84,0,0,1,.24-.07l-.19,0h.18l-.19,0a.42.42,0,0,1,.16,0L302,415a.19.19,0,0,1,.09.05l-.13-.11.07.08-.11-.14,0,0,.94-.94a2.24,2.24,0,0,0-1.14-.43,2.16,2.16,0,0,0-1.07.14.68.68,0,0,0-.3,1.15,1.63,1.63,0,0,0,1.22.57,1.1,1.1,0,0,0,.5-.11.78.78,0,0,0,.41-.67.75.75,0,0,0-.4-.66,1.31,1.31,0,0,0-.55-.13,1.68,1.68,0,0,0-.79.2,1.12,1.12,0,0,0-.56.7.9.9,0,0,0,.47,1,1.12,1.12,0,0,0,.93,0l.4-.17c.09,0,.19-.07.28-.12a.79.79,0,0,0,.14-1.27,1.77,1.77,0,0,0-.72-.37,1.71,1.71,0,0,0-.81,0,.85.85,0,0,0-.69.82,1.13,1.13,0,0,0,.45.84,1.26,1.26,0,0,0,.77.26,1.29,1.29,0,0,0,.81-.34,1,1,0,0,0,.29-1.09,1,1,0,0,0-1-.49,1.8,1.8,0,0,0-1.33.6.74.74,0,0,0-.2.49.69.69,0,0,0,1.18.49,1.37,1.37,0,0,1,.17-.17l-.14.11a1.35,1.35,0,0,1,.26-.15l-.17.07a1.53,1.53,0,0,1,.29-.07l-.18,0h.29l-.18,0a.32.32,0,0,1,.14,0l-.16-.07h0l-.14-.11v0l-.18-.31v0l0-.19v0l0-.18a.19.19,0,0,1,0,.1l.07-.17-.06.11.11-.14-.09.1.13-.11a.57.57,0,0,1-.13.08l.17-.07-.13,0,.19,0h-.13l.18,0-.12,0,.16.07-.13-.08.14.11-.09-.09.11.14-.07-.11.07.16s0-.05,0-.08l0,.18v0l0,.18s0,0,0,0l-.07.17v0l-.1.14,0,0-.14.11,0,0-.16.07.09,0-.19,0a1.11,1.11,0,0,1,.26,0l-.18,0a1.61,1.61,0,0,1,.36.1l-.16-.07a1.41,1.41,0,0,1,.24.13l-.14-.11,0,0-.11-.14v0l-.07-.17v0l0-.18v0l0-.18v0l.07-.16v0l.11-.14,0,0,.14-.11a1.45,1.45,0,0,1-.25.12l-.28.12.17-.07-.22.07.19,0h-.12l.19,0-.08,0,.17.07-.07,0,.14.11s0,0-.05-.05l.11.14a.08.08,0,0,1,0,0l.07.16s0,0,0-.05l0,.19v0l0,.18,0-.08-.07.17a.16.16,0,0,1,0-.07l-.11.14.1-.1-.14.11a.8.8,0,0,1,.16-.08l-.17.07.21-.06-.18,0h.24l-.18,0,.11,0-.16-.07,0,0-.25-.24v0l-.07-.17v-.33l.07-.16h0l.11-.14,0,0,.14-.11,0,0,.17-.07-.05,0,.18,0h-.21l.18,0-.24-.06.17.07a.72.72,0,0,1-.21-.12l.14.11a1,1,0,0,1-.18-.17l-.3,1.15a1.82,1.82,0,0,1,.4-.11l-.18,0a1.93,1.93,0,0,1,.48,0l-.19,0a1.69,1.69,0,0,1,.44.12l-.17-.07a1.53,1.53,0,0,1,.37.21l.16.07a.53.53,0,0,0,.28,0,.66.66,0,0,0,.39-.19.92.92,0,0,0,.18-.3.68.68,0,0,0-.07-.54,1.15,1.15,0,0,0-.41-.38,1.23,1.23,0,0,0-.56-.15,1.68,1.68,0,0,0-.9.26.7.7,0,0,0-.25.94.71.71,0,0,0,.95.25Z" transform="translate(-286.32 -397.01)"/><path class="cls-4" d="M292.74,414a.93.93,0,0,0-.49-.11.9.9,0,0,0-.62.26.94.94,0,0,0-.15,1.13,1,1,0,0,0,.9.47,1.67,1.67,0,0,0,.77-.25,1.58,1.58,0,0,0,.57-.55.77.77,0,0,0-.11-.92,1.1,1.1,0,0,0-.46-.28,1.12,1.12,0,0,0-.91.09,1,1,0,0,0-.5.69,1.14,1.14,0,0,0,0,.52,1,1,0,0,0,.27.45,1.16,1.16,0,0,0,1,.26,1.45,1.45,0,0,0,.69-.39,1.13,1.13,0,0,0,.44-.82.84.84,0,0,0-.39-.69,1.17,1.17,0,0,0-.54-.16,1.48,1.48,0,0,0-.69.11,2.12,2.12,0,0,0-.62.31,1,1,0,0,0-.31,1.36,1.15,1.15,0,0,0,.38.41,1.27,1.27,0,0,0,1,.18,1.84,1.84,0,0,0,.69-.3,3.25,3.25,0,0,0,.61-.5.7.7,0,0,0,.19-.58.74.74,0,0,0-.33-.51,4.5,4.5,0,0,0-.45-.31,1.07,1.07,0,0,0-.5-.14.94.94,0,0,0-.61.24.72.72,0,0,0-.2.49.74.74,0,0,0,.2.49.71.71,0,0,0,.49.2.8.8,0,0,0,.49-.2l0,0-.14.11h0l-.17.07h0l-.18,0h.06l-.18,0,.09,0-.16-.07a3.21,3.21,0,0,1,.48.34l-.14-1.09a2.68,2.68,0,0,1-.3.28l.14-.11a2.11,2.11,0,0,1-.45.28l.17-.07-.25.07.18,0a.48.48,0,0,1-.17,0l.19,0-.15,0,.17.07a.35.35,0,0,1-.12-.07l.14.11-.09-.09.11.14-.06-.09.07.16,0-.11,0,.19a.27.27,0,0,1,0-.09l0,.18,0-.08-.07.16a.35.35,0,0,1,.05-.08l-.11.14.1-.09-.14.11a1.23,1.23,0,0,1,.25-.14l-.17.07a2.49,2.49,0,0,1,.44-.14l-.18,0h.2l-.19,0,.14,0L293,415l.06,0-.14-.11,0,0-.1-.14v0l-.07-.17s0,0,0,0l0-.18v0l0-.18v0l.07-.16,0,.06.11-.14a2.68,2.68,0,0,1-.28.3l.13-.11-.16.1.17-.07a.35.35,0,0,1-.14,0l.19,0a.33.33,0,0,1-.14,0l.18,0-.09,0,.17.07-.08,0,.14.11-.07-.07.11.14,0-.05.07.16a.17.17,0,0,1,0-.1l0,.18v-.08l0,.18a.17.17,0,0,1,0-.1L293,415a.41.41,0,0,1,.05-.09L293,415,293,415l-.14.11L293,415l-.17.07.1,0-.19,0h.12l-.18,0,.14,0-.16-.07.08.05-.14-.11.05,0-.11-.14v0l-.06-.16v0l0-.19v0l0-.19v0l.07-.17,0,.05.11-.14a1.07,1.07,0,0,1-.19.18l.14-.1-.28.16.17-.07a.9.9,0,0,1-.22.06l.18,0h-.12l.18,0-.09,0,.16.07-.06,0,.14.1,0,0,.11.14a.13.13,0,0,1,0-.06l.07.17a.64.64,0,0,1,0-.07l0,.19a.08.08,0,0,1,0-.07l0,.18a.25.25,0,0,1,0-.07l-.07.17s0,0,0,0l-.11.14.05-.05-.14.11,0,0-.16.07.06,0-.18,0h.06l-.18,0,.06,0-.16-.07h0a.75.75,0,0,0,.53.07A.73.73,0,0,0,293,415a.66.66,0,0,0,.07-.53.68.68,0,0,0-.32-.42Z" transform="translate(-286.32 -397.01)"/></svg>