<svg id="Layer_1" data-name="Layer 1" xmlns="http://www.w3.org/2000/svg" viewBox="0 0 46.09 39.37"><defs><style>.cls-1{fill:#eb587b;}.cls-2{fill:#fff;}.cls-3{fill:#202529;}</style></defs><path class="cls-1" d="M295.63,431.66c-2.49-4.16-7.15-9.53-8.2-14.32-.3-1.39.31-6.89,1.93-7.57,2.53-1.08,4.74,3.85,5.45,5.47,1.15,2.65,5.58,2.5,6.79,0,1.88-3.91,6.82-3.7,6.09,1.35-.39,2.73-2.23,5.2-4.12,7.09-3.77,3.79-8.66,6.36-12.67,9.91l6.17,4.76,13.27-23.42c2.29-4-2.85-7.58-6.17-4.76-5.72,4.85-9.6,11.15-13.33,17.57l7.32,2c-.29-6.11-.71-12.16-2.37-18.07a4,4,0,0,0-7.58,0,43.79,43.79,0,0,0-1.63,11.09l7.73-1a38.21,38.21,0,0,0-3.25-10c-1.6-3.41-7.8-1.86-7.32,2a7.56,7.56,0,0,0,2.13,5c3.34,3.81,8.89-1.77,5.56-5.56l-.83-.94,1.15,2.78-.15-1.24-7.32,2a31.66,31.66,0,0,1,2.45,8.13c.77,4.48,7.63,3.24,7.72-1.05a35.12,35.12,0,0,1,1.34-9h-7.58a71,71,0,0,1,2.09,16c.18,3.8,5.3,5.47,7.33,2,3.41-5.87,6.86-11.53,12.1-16L303.55,411l-13.27,23.42c-2.26,4,2.88,7.69,6.18,4.77,7.83-6.93,20.61-12.78,19-25.38-1.43-11.29-16-12.16-20.67-2.5h6.79c-3.47-7.93-14-15-19.39-4.76-2.24,4.25-3.55,9-2.08,13.7,1.68,5.43,5.8,10.56,8.71,15.41,2.6,4.34,9.4.39,6.79-4Z" transform="translate(-274.45 -400.83)"/><path class="cls-2" d="M306.83,405.43l0,0-2,1.54-.37.71.34,1.66-2.34,1.08-2.81.38-1.18-.21-.95.17-1.19.31-2.2,1.05-2.2-1-1.38-1.49.67-.95-2.81-3.12a5.88,5.88,0,0,0-2.57-.51c-.78.24-6.13,5.32-6.2,5.49s-.84,3.28-.84,3.28l3.15,3.39,1.42-.64,2.71,3.25,1.32,2.43-1.05,2.24.17,1.12.74.71.71.06-.1.92.88,1,1.29.27.2.84,1.52.82.68-.24.27,1.08.95.41.71.07.71-.37.37.16,1.9,1.18,1.42-.3.65-.33,1.45-.17,1.39-.85.34-.71.74.07,1.56-1.19.44-.68,1.25-.91.61-2-.3-1.15.88-1.28,1.29-2.88,1.72-2.64,1.76-1.76,3.73-4.17Z" transform="translate(-274.45 -400.83)"/><path class="cls-3" d="M302.67,430.46a2.18,2.18,0,0,1-1.9,1.39,4,4,0,0,1-1.14.11.52.52,0,0,0-.26.08.81.81,0,0,0-.24.17,1.52,1.52,0,0,1-1.28.35,2.75,2.75,0,0,0-.57-.05,1.38,1.38,0,0,1-1-.33,4.79,4.79,0,0,1-.94-.74.89.89,0,0,0-.25-.16l-.3.17a.92.92,0,0,1-.58.22,1.34,1.34,0,0,0-.39.07,1.08,1.08,0,0,1-1.37-.86c0-.17,0-.34-.05-.54a5.4,5.4,0,0,0-.9-.11,2.72,2.72,0,0,1-.72-.18,1.46,1.46,0,0,1-.75-.68c-.08-.17-.17-.33-.28-.53s-.44-.15-.68-.21a2,2,0,0,1-1-.71l-.06-.09a1.08,1.08,0,0,1-.35-1.16l-.36-.08a1.63,1.63,0,0,1-1-.67.89.89,0,0,1-.17-.7,5.16,5.16,0,0,1,.34-1.38A2.82,2.82,0,0,1,287,423a.69.69,0,0,0,0-1,7.75,7.75,0,0,1-.46-.79c-.48-.9-1-1.75-1.6-2.6a2.43,2.43,0,0,0-.24-.32c-.35-.4-.72-.79-1.1-1.21l-.41,0a2.31,2.31,0,0,1-.32.29.94.94,0,0,1-1.34-.13c-.48-.49-.95-1-1.43-1.5-.21-.22-.43-.43-.66-.64a.75.75,0,0,0-.22-.12,1.82,1.82,0,0,1-1.5.05c-.45-.5-.9-1-1.36-1.53s-.84-.85-1.24-1.28c-.2-.21-.38-.44-.57-.65a.49.49,0,0,1-.09-.53,6.72,6.72,0,0,1,.59-1.24,1,1,0,0,1,.18-.22,2.41,2.41,0,0,0,.41-.54,13.82,13.82,0,0,1,.93-1.24,10,10,0,0,1,.71-.75c.81-.81,1.62-1.63,2.46-2.41a13.6,13.6,0,0,1,3.22-2.3c.24-.12.47-.25.7-.39a5.42,5.42,0,0,1,2.09-.75,1.67,1.67,0,0,0,.32-.08,2.43,2.43,0,0,1,.75.55c.65.62,1.22,1.32,1.85,2a1.54,1.54,0,0,1,.25.32,3.43,3.43,0,0,0,.9,1.1.55.55,0,0,1,.16.72l-.24.58c0,.1-.09.2-.14.33.13.15.25.3.38.44l1.42,1.49a.72.72,0,0,1,.15.8c-.12.29-.26.56-.4.84a.76.76,0,0,0,.06.16,4.33,4.33,0,0,0,2,1.27,1.71,1.71,0,0,0,1.69-.17,7.92,7.92,0,0,1,2.88-.93,6.59,6.59,0,0,1,1.66,0c.31.06.64.06,1,.15a.88.88,0,0,0,.28,0,8.64,8.64,0,0,0,2-.51l1.46-.67a2.3,2.3,0,0,0,.33-.21c-.13-.47-.24-.91-.37-1.34a.62.62,0,0,1,.17-.72c.45-.44.88-.9,1.35-1.37a.79.79,0,0,0,0-.2,1.71,1.71,0,0,1-.13-1.11.84.84,0,0,1,.39-.62l2.15-1.52c.32-.22.65-.42,1-.63s.8-.53,1.18-.82a.61.61,0,0,1,.53-.14,1.93,1.93,0,0,1,.82.38,22.45,22.45,0,0,1,3,2.47c.39.39.81.76,1.2,1.15a19.2,19.2,0,0,1,3.1,3.91,28.89,28.89,0,0,1,1.46,2.67,5.22,5.22,0,0,1,.29.87.43.43,0,0,1-.15.41c-.21.25-.44.48-.66.72l-.51.54c-.1.1-.18.2-.28.29-.58.5-1.11,1.06-1.68,1.57a6.28,6.28,0,0,1-1.09.73,1,1,0,0,1-.94,0,2.77,2.77,0,0,1-.36-.21c-.62.49-1.2,1-1.84,1.49a5,5,0,0,1-.88-.29,6.14,6.14,0,0,1-.72-.5,1.38,1.38,0,0,0-.6.57,19.75,19.75,0,0,0-1.19,1.83,22.81,22.81,0,0,0-1.28,2.69,7.25,7.25,0,0,1-.91,1.6c-.1.14-.2.28-.31.41a.43.43,0,0,0-.09.48s0,.08,0,.11a2.53,2.53,0,0,1-.26,2.31,2,2,0,0,0-.14.25,2,2,0,0,1-.88,1,1.21,1.21,0,0,0-.64.69.4.4,0,0,1-.15.17,7,7,0,0,1-1.56,1.16,1.29,1.29,0,0,1-.38.12A2.73,2.73,0,0,1,302.67,430.46Zm-25.39-19.22.14-.21c.23-.35.47-.7.69-1,.37-.6.74-1.2,1.1-1.81-.63.64-1.15,1.37-1.71,2.06l-.13.23-.15.21-.13.22-.15.32,0,.05,0-.05.15-.32.14-.23.14-.21.13-.23c.22.08.24.11.18.25s-.17.37-.25.56l-.14.22,0,0s0,0,0,0Zm.33,1.44,0,0a0,0,0,0,0,0,0l.05-.06,0,0Zm-1.49-2.59,0,0,0,0-.06,0,0,.06Zm3.28.78.13-.22,0-.07,0,.08-.14.22s0,0,0,0,0,0,0,0Zm-4-.39a1.43,1.43,0,0,1,.14-.2l0,0,0,0c0,.07-.09.14-.14.21l0,0v0Zm2.13-1.62-.14.21a.79.79,0,0,0-.37.6,1.78,1.78,0,0,0,.37-.6c0-.08.09-.15.13-.22l.05,0a0,0,0,0,0,0,0Zm1.22.58-.05,0a.06.06,0,0,0,0,0l.05-.07.13-.23a.91.91,0,0,0,.19-.13c.44-.52.85-1.06,1.28-1.62a.55.55,0,0,0-.55.29l-.91,1.47Zm36.94-4.17-.09,0,.09,0a.38.38,0,0,0,0,.1s0,0,.07,0,0,0,0-.05Zm-32.16-2.19a.44.44,0,0,0-.27.32l-.23.16c.19,0,.2-.09.23-.17s.17-.21.26-.32l0,0Zm.83-.27-.18.15.06.05.11-.21.05,0a.06.06,0,0,0,0,0Zm22.59.69-.14.18.07,0,.06-.23.06,0Zm-29.73,4.84.18-.13-.05,0-.12.19,0,0Zm8-5,.23-.16c-.2,0-.18.1-.23.17l-.13.08s0,0,0,.05.08,0,.09,0S285.2,403.39,285.22,403.34ZM314,405.69a.27.27,0,0,0,.07.08l0,0s0-.05,0-.06a.23.23,0,0,0-.1,0l-.13-.33C313.83,405.57,314,405.6,314,405.69Zm2.74,4.07c0,.09,0,.19.16.25l-.17-.24c0-.13,0-.25-.15-.32C316.51,409.64,316.61,409.71,316.75,409.76Zm-29.07-5.48a.34.34,0,0,0,0,.1l.06,0a.06.06,0,0,0,0,0l-.07-.08c-.08-.1-.11-.26-.36-.23Zm23.75,4.27s0,.07,0,.11l0,0s0-.06,0-.08l-.08-.06a.41.41,0,0,0-.24-.38A.42.42,0,0,0,311.43,408.55Zm-3.06-3.06a.45.45,0,0,0-.2-.37,1,1,0,0,0-.47-.82.79.79,0,0,1-.69,0s-.07,0-.08.07,0,.09,0,.1l.3.12c.12,0,.12.26.31.19l.17-.26c.16.21.31.38.45.55s0,.3.19.37.08.21.32.39Zm6.23,5v.06s0,0,0,0l0-.08a3.78,3.78,0,0,0-.22-.33c-.1-.11-.16,0-.22.06a3.57,3.57,0,0,1-.27-.28l-.46-.66a2.69,2.69,0,0,1-.41-.81.73.73,0,0,0-.3-.47.62.62,0,0,0,.07.74c.42.57.82,1.15,1.24,1.72a.73.73,0,0,0,.15.11c0-.14,0-.25,0-.36Zm-29.1-8.82a.62.62,0,0,0-.5.08c.24.1.36,0,.5-.09h.05l0,0Zm29.12,3.75,0,0h0l.08,0c0,.18.13.24.31.21C314.89,405.41,314.75,405.41,314.62,405.4Zm-32,3.58c.28-.14.28-.14.35-.33l-.35.34,0,0ZM277,407.76a1.11,1.11,0,0,0,.52-.53l.23-.18c-.19,0-.21.09-.23.18a.82.82,0,0,0-.51.53c-.18.12-.18.12-.21.31Zm.28,4.3a.78.78,0,0,0,.3-.54.82.82,0,0,0-.3.55l-.05.07Zm34.7-8.42s0,.07,0,.11l0,0-.07-.12c.06-.09.1-.18,0-.26l-.32-.2A.67.67,0,0,0,312,403.64Zm-33.92,8.61c.38-.4.43-.5.4-.82-.11.2-.21.35-.29.51a1.7,1.7,0,0,0-.1.32l0,.08Zm34.68-8.18a1,1,0,0,0-.3-.55c0,.28,0,.28.31.54a2,2,0,0,0,.6.84s.09,0,.13-.07l0,0,0,0h0c-.11-.1-.23-.19-.33-.29S312.92,404.22,312.78,404.07Zm-29.45.82c.35-.16.49-.51.72-.78,0,0,.11-.11,0-.2s-.1.06-.13.1l-.6.89,0,0,0,0Zm-3.68,2.2.25-.44c.07-.14.22-.25.21-.48l-.21.17c-.18.15-.33.31-.23.58,0,.05,0,.11,0,.17l-.18.14.06,0Zm4.27-2.24a2.18,2.18,0,0,0-.67,1l-.05,0a0,0,0,0,1,0,0l.05-.07a1.2,1.2,0,0,0,.68-1l0,0a.06.06,0,0,1,0,0Zm29.87-.34a.38.38,0,0,0,0,.1l.09,0s0-.06,0-.08l-.1,0a3.15,3.15,0,0,0-.74-1c0-.06-.13-.07-.2-.1a2.73,2.73,0,0,0-.5-.46,6.92,6.92,0,0,1-1.53-1.43l-.17-.17c-.29.11-.28.33-.31.54,0,.06-.08.16-.05.2a3.5,3.5,0,0,0,.37.49,1.11,1.11,0,0,0,.59.4c-.2-.25-.35-.45-.51-.64l-.4-.46.24-.31c.06.06.11.09.13.13a1.48,1.48,0,0,0,.53.72c.31.25.65.45,1,.7a1.63,1.63,0,0,0,.66.29A4.23,4.23,0,0,0,313.79,404.51Zm4.08,6.76c-.08-.21-.08-.21-.31-.38l.31.38s0,.08,0,.11q.28.56.6,1.11l.16,0A5.86,5.86,0,0,0,317.87,411.27Zm-36.24-4.35a4,4,0,0,0,1-1.18l-.08-.08a6.84,6.84,0,0,0-.94,1.27l0,0a.06.06,0,0,0,0,0Zm.77,1.58a3.6,3.6,0,0,0,1-1.13,2.64,2.64,0,0,0-1,1.14l0,.09Zm0-.69a1.54,1.54,0,0,0,.31-.25,3.79,3.79,0,0,0,.76-1.14l0,0s0,0,0,0l0,.08a5.43,5.43,0,0,0-1.06,1.4l-.13.1s0,.05,0,.07,0,0,0,0A1,1,0,0,0,282.35,407.81Zm36.9,3.59a1.67,1.67,0,0,0,.57,1.06s0,0,0,0c-.14-.29-.29-.58-.44-.87,0-.05-.07-.08-.11-.12l-.05,0a4.15,4.15,0,0,0-.88-1.2,3.39,3.39,0,0,0,.57,1.08A1.33,1.33,0,0,0,319.25,411.4Zm-3.47-.91,0,.08.06-.07.28.2c-.14-.41-.23-.74-.36-1.05a1.19,1.19,0,0,0-.49-.53,1.75,1.75,0,0,0,.18.4A1.74,1.74,0,0,1,315.78,410.49Zm.28-4.48a.36.36,0,0,0,0-.1s0,0,0,0,0,.05,0,.07a.22.22,0,0,0,.07.06.48.48,0,0,0,.05.17l1.05,1.61s.09,0,.16.06A8.65,8.65,0,0,0,316.06,406Zm-35.05.16a2.33,2.33,0,0,0,.35-.27c.35-.37.69-.76,1-1.14a2.12,2.12,0,0,0,.13-.25,5.69,5.69,0,0,0-1.5,1.67l0,0a.06.06,0,0,0,0,0Zm.77,1.59a4.14,4.14,0,0,0,1.05-1.27c-.1,0-.21,0-.26,0a1.5,1.5,0,0,0-.24.31c-.12.14-.17.35-.38.4l0,0h0v0c-.06.19-.12.37-.17.56l-.05.08Zm-1.85,1.33a1.8,1.8,0,0,0-.29.26c-.19.24-.36.49-.55.72a1.37,1.37,0,0,0-.4,1l0,0,0-.05c.32-.48.66-1,1-1.45a3.89,3.89,0,0,0,.25-.5c.1-.06.21-.13.2-.29C280,408.84,279.94,409,279.93,409.09Zm1.12-2.1a8.43,8.43,0,0,0,1.38-1.63.63.63,0,0,0-.48.32c-.19.26-.41.51-.59.77a4.88,4.88,0,0,0-.31.55l-.18.14.07.05Zm-.94,2.45a1.24,1.24,0,0,0,.18-.14c.32-.4.64-.8.95-1.21.13-.18.23-.39.34-.58l0-.09,0,.09c-.11.1-.23.19-.33.3a3.58,3.58,0,0,1-.26.29,2.83,2.83,0,0,0-.87,1.35l0,.08Zm.44-3.31a.88.88,0,0,0,.19-.12c.37-.39.73-.78,1.09-1.18a1.88,1.88,0,0,0,.38-.63,1.31,1.31,0,0,0-.2.11c-.42.49-.85,1-1.26,1.48a1.48,1.48,0,0,0-.19.35l-.18.15.06,0Zm38.08,5.66s0,0,0,0,.17-.3,0-.47l-.85-1.08-.25-.29a1.49,1.49,0,0,0,.29.72A6.16,6.16,0,0,0,318.63,411.79ZM281,404.6c0-.15.2-.27.11-.52a2.07,2.07,0,0,0-.27.35c-.06.1,0,.17.13.2a3.1,3.1,0,0,1-.87.93c-.11-.09-.2-.15-.3-.24-.1.13-.24.23-.24.33a1,1,0,0,1-.09.49s0,.09,0,.1a.2.2,0,0,0,.15,0,.79.79,0,0,0,.18-.14l1.7-1.69s0-.09.06-.2a1,1,0,0,0-.23.11C281.24,404.45,281.15,404.57,281,404.6Zm33.65,4.16c-.18-.06-.26-.22-.36-.36s-.29-.44-.45-.66a.46.46,0,0,0-.15-.16.19.19,0,0,0-.16,0,.1.1,0,0,0,0,.09.52.52,0,0,0,.06.16c.48.66,1,1.33,1.45,2,.06.07.11.2.26.17a1.5,1.5,0,0,0-.29-.61c-.12-.22-.32-.39-.32-.66l.1,0s.06,0,.08,0l-.07-.07Zm1.06-.13a4,4,0,0,1-.36-.35c-.29-.38-.56-.78-.84-1.16-.06-.09-.12-.21-.26-.18s-.07.28,0,.4l.93,1.24c.21.27.44.53.67.79.06.07.15.1.24,0-.08-.12-.18-.23-.25-.36a2.32,2.32,0,0,1-.16-.36l.3.09-1.27-1.92-.11-.13-.05,0-.08,0a2.75,2.75,0,0,0,.14.3l.86,1.21C315.58,408.32,315.72,408.43,315.7,408.63Zm-1.76.79c.17.17.35.35.51.53s.32.36.48.54a3.79,3.79,0,0,0-.83-1.41c-.36-.43-.52-1-1-1.39,0,.49,0,.49.23.8.09.13.17.25.27.37a1,1,0,0,1,.24.52c0,.06,0,.17,0,.17S313.93,409.47,313.94,409.42Zm-5.82-5.1a1.72,1.72,0,0,0,.07-.21s0,0,0,0l-.08,0a1.46,1.46,0,0,0,.05.2,3.88,3.88,0,0,1,.83,1.22l1.49,2a.17.17,0,0,0,.28,0l-.13-.23c-.48-.66-1-1.33-1.45-2A2.82,2.82,0,0,0,308.12,404.32Zm3.78,3c0,.12,0,.23.24.3l-.25-.3-.16-.24c-.42-.59-.85-1.18-1.26-1.78a2.15,2.15,0,0,1-.21-.46s0-.08.05-.09a.09.09,0,0,1,.1,0,1.15,1.15,0,0,1,.14.17c.55.69,1.09,1.39,1.63,2.08a3.31,3.31,0,0,0,.26.27.23.23,0,0,0,0-.22l-.52-.69a10.93,10.93,0,0,1-1.2-1.81,2.14,2.14,0,0,0-.88-1,2.5,2.5,0,0,1-.34-.31c-.07-.07.09-.24-.1-.27a.3.3,0,0,0,0,.38,3.09,3.09,0,0,0,.35.38l.5.47a.59.59,0,0,1,.11.19.12.12,0,0,1,0,.1s-.08,0-.1,0a.8.8,0,0,1-.24-.14c-.15-.15-.28-.32-.42-.47a1,1,0,0,0-.53-.36.36.36,0,0,1,0,.11c.16.29.45.52.45.91a.36.36,0,0,0,.22.25c.31.09.42.36.59.58.42.57.84,1.14,1.28,1.7A1.28,1.28,0,0,0,311.9,407.33Zm-24.13-1.65a17.79,17.79,0,0,0-2.64,1.62,16.75,16.75,0,0,0-1.48,1.19,11.59,11.59,0,0,1-1.29,1.13,1.92,1.92,0,0,0-.29.28l-1.75,1.82-.09.07a9.89,9.89,0,0,0-1.49,1.67s0,.07,0,.13a2.46,2.46,0,0,0,.56.69l1.05,1.14c.26.28.51.58.76.86a1.69,1.69,0,0,0,.52.44c.06-.06.12-.09.14-.14a15.51,15.51,0,0,1,1-1.54,8.45,8.45,0,0,1,1.65-1.83l1.41-1.27a1.09,1.09,0,0,1,.26-.22,7,7,0,0,0,1.18-.91c.41-.28.84-.54,1.25-.82a12.24,12.24,0,0,1,1.88-1.2c.16-.08.37-.11.48-.32-.09-.11-.16-.22-.25-.32l-2.13-2.25a.8.8,0,0,0-.17-.15.47.47,0,0,0-.54-.07Zm3.67,9.84.34.07a.36.36,0,0,0,0,.09s0,0,0,.08l.56,0c.15,0,.31-.06.46-.06a4.21,4.21,0,0,0,1.56-.34l.49-.17a2.15,2.15,0,0,1,1.46,0,.62.62,0,0,0,.45,0l-.21-.19.72.13a.45.45,0,0,0,.4.43c.36.06.71.15,1.06.24a3.59,3.59,0,0,0,2.52-.18l.32-.12a.45.45,0,0,1,.13.06l-.06.41a2.87,2.87,0,0,1-1,.18,6.24,6.24,0,0,1-1,.08l-1,0c0,.07,0,.12,0,.14l1.61,2.1,3,3.83a22.47,22.47,0,0,0,1.81,2.08,2.25,2.25,0,0,0,.68.51,1.16,1.16,0,0,0,.58-.38,9,9,0,0,0,1.38-1.82,8.15,8.15,0,0,0,.46-1.05c.35-.84.76-1.64,1.17-2.44a12.64,12.64,0,0,1,1.92-2.78c.22-.23.47-.44.71-.67a1.19,1.19,0,0,0-.26-.57,21.86,21.86,0,0,0-2.85-3.3c-.46-.4-.89-.85-1.31-1.29s-.77-.85-1.16-1.28a1.24,1.24,0,0,0-.67-.45,4,4,0,0,1-1.22.85c-.41.2-.81.42-1.22.63-.14.07-.28.11-.42.17a7.33,7.33,0,0,1-2.11.52,4.58,4.58,0,0,1-1.88-.11,1.68,1.68,0,0,0-.4-.05,5.13,5.13,0,0,0-2.86.7l-2.88,1.66a1.83,1.83,0,0,1-.32.14,5.94,5.94,0,0,0-1.37.71,2.46,2.46,0,0,1-.45.25,1,1,0,0,0-.25.14.37.37,0,0,0-.14.36,1.14,1.14,0,0,0,1,.8s.07,0,.11-.05Zm2.16-3.4-1.11-.41a1.16,1.16,0,0,1-.4-.2c-.42-.36-.82-.74-1.22-1.13s-.47-.5-.71-.75a.35.35,0,0,0-.51-.06L289,410c-.41.27-.86.5-1.25.81-.92.75-1.83,1.52-2.71,2.31-.65.6-1.25,1.24-1.87,1.87a1.37,1.37,0,0,0-.38.58c.08.09.14.19.22.27a18.26,18.26,0,0,1,2.45,3l1.08,1.76c.26.41.5.82.77,1.22a1.06,1.06,0,0,0,.27.22,2.94,2.94,0,0,1,.33-.36,2.51,2.51,0,0,1,.58-.45,1.06,1.06,0,0,1,.93.1,1.29,1.29,0,0,1,.8,1,1,1,0,0,0,.12.26l.29-.12a.55.55,0,0,1,.5,0c.36.21.75.4.9.84a3.83,3.83,0,0,1,.17.43,3.49,3.49,0,0,1,.08.5,1.22,1.22,0,0,1,.42-.07,11,11,0,0,1,1.15.36.59.59,0,0,1,.37.48,1.81,1.81,0,0,1,0,1l.42-.07a2.82,2.82,0,0,1,.41,0,.64.64,0,0,1,.69.49,2.7,2.7,0,0,1,.19,1.12,6.69,6.69,0,0,1-.34,2c-.11.34-.21.69-.32,1a.49.49,0,0,0,.15.57c.21.17.43.32.63.5a1.84,1.84,0,0,0,.84.35,11.5,11.5,0,0,0,1.66,0,.59.59,0,0,0,.52-.33,1,1,0,0,0-.11-.2,12.42,12.42,0,0,0-1.57-1.59,1.92,1.92,0,0,1-.67-.92c0-.1,0-.18.14-.19l.05,0a8.36,8.36,0,0,0,1.26,1.4,9.74,9.74,0,0,1,1,1,1.08,1.08,0,0,0,1.05.33,3.51,3.51,0,0,0,1.66-.73,1.21,1.21,0,0,0,.29-.35.36.36,0,0,0-.07-.47c-.44-.42-.86-.87-1.33-1.26a17.09,17.09,0,0,1-1.59-1.48.83.83,0,0,1-.14-.3c0-.1,0-.2.18-.22a5,5,0,0,1,.45.47,4.2,4.2,0,0,0,.72.74l1.72,1.6a2.58,2.58,0,0,0,.41.33.83.83,0,0,0,.92,0,5.41,5.41,0,0,0,1.29-1,.85.85,0,0,0,.12-.26,7.94,7.94,0,0,1-1-.61,35.22,35.22,0,0,1-2.55-2.49,1.85,1.85,0,0,1-.17-.27.62.62,0,0,1,.21-.08s.1.05.14.08l1.76,1.65.2.21a3.57,3.57,0,0,0,1.35.95.83.83,0,0,0,.77-.06,1.8,1.8,0,0,0,.62-.5,3.36,3.36,0,0,0,.65-2.1,1.53,1.53,0,0,0-.18-.67,2.22,2.22,0,0,0-.56.42c-.18.16-.29.17-.45,0-.38-.36-.75-.71-1.11-1.09-.62-.65-1.15-1.38-1.72-2.07-.34-.41-.53-.94-1-1.25-.45-.59-.91-1.18-1.36-1.78a32.53,32.53,0,0,1-2.05-2.63,1.24,1.24,0,0,0-.27-.29.75.75,0,0,0-.25-.13c-.25-.09-.51-.16-.76-.24a4.41,4.41,0,0,0-2.16-.17,11.51,11.51,0,0,0-1.65.46,3,3,0,0,1-.86.23,7.85,7.85,0,0,1-1,0,1,1,0,0,1-.38-.12,2.44,2.44,0,0,1-1.14-1.17.63.63,0,0,1,.33-.91l.6-.32c.61-.32,1.19-.7,1.83-1A2.32,2.32,0,0,0,293.6,412.12Zm19.63,5c.15.06.26,0,.35-.12q.53-.45,1-.93c.27-.26.54-.54.8-.82l.23-.25a2.51,2.51,0,0,0-.13-.28,17.45,17.45,0,0,0-3.1-3.75c-.64-.57-1.22-1.21-1.83-1.82l-.08-.08c-.59-.66-1.17-1.32-1.76-2-.21-.23-.43-.43-.65-.65l-.73-.72a4.38,4.38,0,0,0-.34-.29,11.93,11.93,0,0,0-1.83,1.23,1.73,1.73,0,0,0-.39.42,1,1,0,0,0-.11.29,4.91,4.91,0,0,1,.69.35,7.49,7.49,0,0,1,.92.86c.5.53,1,1.09,1.46,1.63.23.25.46.51.71.75s.61.52.9.8c.45.44.89.89,1.31,1.36s.67.84,1,1.27a8.54,8.54,0,0,1,1.5,2.62A.23.23,0,0,0,313.23,417.16ZM294,425.71c0-.09,0-.24,0-.4a.53.53,0,0,0-.42-.54l-.65-.22a.51.51,0,0,0-.58.13,3.79,3.79,0,0,0-.68.91c-.31.57-.62,1.14-.91,1.73a6.81,6.81,0,0,0-.39,1,2.19,2.19,0,0,0-.06.68.67.67,0,0,0,.38.6,1.82,1.82,0,0,0,.83.21.89.89,0,0,0,.82-.43c.15-.26.33-.51.47-.78.29-.56.54-1.14.84-1.7A3.67,3.67,0,0,0,294,425.71Zm-2.15-1.31c0-.27-.07-.53-.11-.79a.85.85,0,0,0-.6-.64.49.49,0,0,0-.54.08l-.44.37c-.27.23-.6.39-.72.77,0,.07-.1.12-.15.18a2.38,2.38,0,0,0-.31.4c-.25.49-.52,1-.72,1.49a1.17,1.17,0,0,0,.32,1.6l0,0a2.06,2.06,0,0,0,.83.49.35.35,0,0,0,.43-.19,2.44,2.44,0,0,0,.26-.57,4.35,4.35,0,0,1,.57-1.19l.94-1.5A1,1,0,0,0,291.84,424.4Zm3.69,3.63c.09-.89.07-.95-.08-1.33a.63.63,0,0,0-.61-.44.57.57,0,0,0-.54.23,9.23,9.23,0,0,0-1.4,2.74,1.44,1.44,0,0,0,0,1.17c.06.12,0,.29.11.42a1.26,1.26,0,0,0,1,.53.78.78,0,0,0,.83-.48,7.41,7.41,0,0,0,.24-.76c.07-.24.14-.48.19-.72C295.36,428.87,295.46,428.34,295.53,428Zm-9-3.34a4,4,0,0,0,0,.44,1.31,1.31,0,0,0,.47.95.78.78,0,0,0,.66.12c.2,0,.22-.23.29-.39a5.37,5.37,0,0,1,.52-1.08,6.84,6.84,0,0,1,1.32-1.57.55.55,0,0,0,.23-.39,1.1,1.1,0,0,0-1.09-1.21.75.75,0,0,0-.43.13,2,2,0,0,0-.46.42,11,11,0,0,0-1.37,2.18A1.53,1.53,0,0,0,286.52,424.69Zm26.59-17.57a1.35,1.35,0,0,0-.38-.75,11.19,11.19,0,0,1-1.62-2.52,1.52,1.52,0,0,1-.7-.54l-.56-.56c-.05-.05-.12-.11-.22,0a3.24,3.24,0,0,0,.91,1,.67.67,0,0,1,.42.51,1.31,1.31,0,0,0,.25.44L313,407A.68.68,0,0,0,313.11,407.12Zm-3.52-1.81a23.21,23.21,0,0,0,2.17,2.66s.06,0,.12,0-.12-.2-.19-.29l-1.61-2.16a.41.41,0,0,0-.16-.16A1.26,1.26,0,0,0,309.59,405.31Zm5,.53a7.25,7.25,0,0,0,.42.93c.45.66,1,1.29,1.43,1.93h.09a.09.09,0,0,0,0-.05.41.41,0,0,0,0-.11,25.87,25.87,0,0,1-1.69-2.57.35.35,0,0,0-.13-.11S314.62,405.85,314.54,405.84Zm-25.25.39a.7.7,0,0,0,.24-.85,1.42,1.42,0,0,0-.92.16A2,2,0,0,0,289.29,406.23Zm22.78,2.34a14.78,14.78,0,0,0,1.66,2.17.14.14,0,0,0,0-.22l-1.42-1.94Zm3.16,7.48c0,.08,0,.15.07.18a.66.66,0,0,0,.83-.08c.18-.18,0-.35-.09-.51s-.08-.06-.14-.1a1.46,1.46,0,0,0-.25.13Zm-1.14-9.8a.41.41,0,0,0,0-.11,13.51,13.51,0,0,0-1.62-1.84l-.05,0s0,0-.06.05c.48.62,1,1.23,1.46,1.84a.4.4,0,0,0,.18.13S314.06,406.27,314.09,406.25Zm-8.3-1.24a.62.62,0,0,0,.21.63c.26-.14.54-.22.69-.51C306.45,404.78,306.16,404.81,305.79,405Zm10.27,8.43a4.7,4.7,0,0,0-.93-1.7c0-.06-.09-.13-.18-.08A4.82,4.82,0,0,0,316.06,413.44Zm0-2.46a4.77,4.77,0,0,0,1,1.71c0,.05.1.13.2,0Zm1.7,2.15c.18-.09.14-.2.08-.3l-.71-1.05s-.06-.15-.18-.07A9.47,9.47,0,0,0,317.77,413.13Zm-39.27.93c-.19,0-.23.16-.26.29s.15.46.44.41a.2.2,0,0,0,.16-.29A.86.86,0,0,0,278.5,414.06Zm37.16-2.85a4.72,4.72,0,0,0,1,1.63A5.5,5.5,0,0,0,315.66,411.21Zm1.12,2.59.1-.06a6,6,0,0,0-.87-1.32s-.08,0-.23-.11Zm-6-10.7a1.12,1.12,0,0,0-.7-.68A1,1,0,0,0,310.76,403.1Zm7.29,9.45a1.93,1.93,0,0,0-.71-1.28Zm-33.36-6.49,0-.05s0,0-.05,0c-.23.28-.47.55-.69.83,0,0,0,.07,0,.1C284.21,406.84,284.23,406.81,284.69,406.06Zm32.1,4.79a2.45,2.45,0,0,0-.63-1.16c0,.06,0,.13,0,.16A4.85,4.85,0,0,0,316.79,410.85ZM312,409.26c.3.58.49.8.82.94l-.57-.78S312.18,409.36,312,409.26Zm6.29,3.61a4.56,4.56,0,0,1,.11.49c0,.14,0,.29.17.39.12-.31.13-.34.09-.48a.6.6,0,0,0-.11-.26A1.22,1.22,0,0,0,318.31,412.87ZM314,407.44c-.36-.55-.53-.73-.8-.87A1.85,1.85,0,0,0,314,407.44Zm-30.69-3.28c.59-.47.61-.49.71-.82C283.65,403.49,283.58,403.57,283.26,404.16Zm25.22-.39s-.07.06-.07.08a.72.72,0,0,0,.08.26,1.21,1.21,0,0,0,.57.52c0-.21-.22-.26-.31-.39A3.59,3.59,0,0,1,308.48,403.77Zm7,2a1.94,1.94,0,0,0,.78,1c-.23-.35-.43-.65-.64-.94A.56.56,0,0,0,315.53,405.78Zm-28.18-1.13.08-.08c-.09-.12-.17-.24-.27-.35s-.12,0-.14,0a.17.17,0,0,0,0,.14Zm21.14-2.16a1,1,0,0,0-.55.46A1,1,0,0,0,308.49,402.49Zm10.92,10c-.08.34-.08.34.15.52ZM286.63,404c.13,0,.2-.08.14-.17a.74.74,0,0,0-.21-.18s-.08,0-.18,0Zm21.5,1.7c.13.32.13.32.4.48Zm-23,.48c.27,0,.34-.08.4-.2a.1.1,0,0,0,0-.09.12.12,0,0,0-.1,0Zm-8.33,4.29a2.61,2.61,0,0,0-.17.28,2.25,2.25,0,0,0-.09.31A.65.65,0,0,0,276.76,410.48ZM317.28,409c.05.29.05.29.39.63C317.51,409.4,317.41,409.25,317.28,409Zm-4.39-3.45c.09.32.09.32.39.48Zm-28.51-.95a2.46,2.46,0,0,0,.22-.25s0-.1,0-.15-.12,0-.14,0A.31.31,0,0,0,284.38,404.64Zm29.3-1.07c-.13-.3-.13-.3-.36-.33Zm2,3.09-.08,0a1.13,1.13,0,0,0,.12.18c0,.05,0,.15.18.09ZM312.37,417h.05a.29.29,0,0,0,.13-.28l0,0c-.09,0-.16.12-.16.25A.08.08,0,0,0,312.37,417ZM317,406.67l-.06.07.18.23.07-.05Zm2.08,6.59a1.6,1.6,0,0,0,0-.26s-.06-.07-.1-.1-.05.09-.05.13A1.89,1.89,0,0,0,319,413.26Zm-33-10.13-.07.08.15.16h.05s0-.07,0-.09Zm26.31,1.72c0,.28.09.35.25.36ZM287,402.66l.22.25C287.25,402.72,287.13,402.69,287,402.66Zm27.87,1.91c0,.18,0,.26.3.31ZM312,406.12a1.13,1.13,0,0,0-.1-.13l-.05,0,.11.12Zm-4.25-2.25-.06-.08-.19.16.05.06Zm8.62,3.8-.08,0,.14.2.07,0Zm.55,7.8-.09-.11s-.06.06-.06.09a.34.34,0,0,0,.07.11Zm-38.66-9,0,.05.16-.16-.05-.05Zm39.8,3.46c0-.11,0-.21-.13-.19Zm-1.54-2.7-.08.06.14.18.06-.05Zm-4.24,3.26a.23.23,0,0,1,0,0l.06,0a.07.07,0,0,0,0,0Zm-26.61-8,0-.05s-.07,0-.1,0a.22.22,0,0,0,0,.09Zm-6.62,4.69a.24.24,0,0,0-.08.06s0,.05,0,.08l.1-.11Zm33.27,9.22v0s-.07,0-.09,0,0,0,0,.08ZM314.3,408s0-.05-.06-.07l0,0,.06.07Zm-29.54-4h0a.36.36,0,0,0,0,.09h0Zm1.53.31s-.08,0-.08,0,0,.07,0,.1.07,0,.08,0S286.3,404.3,286.29,404.27Zm-.71,2.18h0s0,0,0,.05h.07S285.58,406.47,285.58,406.45Zm-6.73-.49,0-.08h-.05l0,.07ZM317.08,408l-.08,0s0,0,0,0l.07,0Zm-4.53-2.29,0,0,0,.05,0,0S312.55,405.73,312.55,405.72Zm-1.84,2.81a.29.29,0,0,0,0-.09h0s0,.06,0,.09Zm7.18,5.75v0s0,0,0,0,0,0,0,.05Zm-5-7a.27.27,0,0,0-.07-.08l0,0,.07.08Zm2.5-1a.25.25,0,0,0,0-.08l0,0,0,.07ZM312,401.89l0,0,0,0,.05,0Zm-2.8.83a.08.08,0,0,0,0,0s0,0,0,0l0,0Zm-21.93,2.5,0,0h0s0,0,0,.06ZM276,411.53l0,0,0,0,0,.06Zm10.52-9.13v0h.06s0,0,0,0Zm-.93,1.67,0,0-.05,0s0,0,0,0S285.52,404.06,285.54,404.07Zm.27-.6,0,.07h.05Zm30.93,4.84v-.05h0ZM280.17,405l0,0,.07,0s0,0,0-.05Zm2.66-2.25h0v0Zm24.82,2.44v0h.06s0,0,0,0ZM305.18,408l0,0,.06,0Zm-19.59-4.29v0h.07s0,0,0,0Zm33.26,6.48v0l0,0Zm-.69-1.49v0l0,0ZM315.67,412v0l0,0Zm-29.24-6.77-.05,0,0,0Zm-5.38,3.7h0v0Zm-.43-1.85h0v0Zm24.07.92h0v0Zm1.62-3.58,0,0v0Zm9.58,9.74v.05l0,0Zm-.06.59v0l0,0Zm2.22-1.39h0v-.05Z" transform="translate(-274.45 -400.83)"/><path class="cls-3" d="M281.93,413.55a.91.91,0,0,1-.56.8,1,1,0,0,1-1.06-.25,1,1,0,0,1-.15-1.41.9.9,0,0,1,.62-.38.78.78,0,0,1,.34,0A1.43,1.43,0,0,1,281.93,413.55Zm-1.35.41a1.35,1.35,0,0,0,.35,0,.72.72,0,0,0,.51-.89.9.9,0,0,0-.24-.31.25.25,0,0,0-.22,0,1,1,0,0,0-.33.21c-.08.08-.2.18-.12.33.23,0,.23-.18.33-.28a.21.21,0,0,1,.31,0c.1.1.13.28,0,.35S280.84,413.75,280.58,414Z" transform="translate(-274.45 -400.83)"/><path class="cls-3" d="M312.77,414.45a.91.91,0,0,1,.54-.77.78.78,0,0,1,.8.13.9.9,0,0,1,.39,1.1.89.89,0,0,1-1.62,0A4.56,4.56,0,0,1,312.77,414.45Zm.62-.16a.48.48,0,0,0-.09.66.34.34,0,0,0,.41.14C313.6,414.82,313.51,414.58,313.39,414.29Zm.18-.25a2.61,2.61,0,0,1,.22.27,3,3,0,0,1,.13.3l.2-.1s0-.07,0-.1a.51.51,0,0,0-.06-.21A.43.43,0,0,0,313.57,414Z" transform="translate(-274.45 -400.83)"/><path class="cls-3" d="M291.8,426.08c.44.2.76.53,1.24.4a1.85,1.85,0,0,0,.43-1c0-.12,0-.12.26-.17a.9.9,0,0,1,0,.22,2.8,2.8,0,0,1-.49,1.1.74.74,0,0,1-.86.28A.72.72,0,0,1,291.8,426.08Z" transform="translate(-274.45 -400.83)"/><path class="cls-3" d="M291.38,424a2.78,2.78,0,0,1-.24.56,2.32,2.32,0,0,1-.69.67.46.46,0,0,1-.44,0,.77.77,0,0,1-.44-.33.22.22,0,0,1,0-.21.25.25,0,0,1,.2-.06.62.62,0,0,1,.19.11c.25.21.41.14.6-.05a2.94,2.94,0,0,0,.37-.5,3,3,0,0,1,.15-.31.23.23,0,0,1,.18-.07S291.33,423.88,291.38,424Z" transform="translate(-274.45 -400.83)"/><path class="cls-3" d="M294.91,428.14a.91.91,0,0,1-.72-.07.39.39,0,0,1-.17-.21c0-.08,0-.17.06-.27a4,4,0,0,0,.47.23.29.29,0,0,0,.38-.17c.1-.22.17-.45.26-.68.13,0,.2,0,.18.15a2.51,2.51,0,0,1-.18.59A2.62,2.62,0,0,1,294.91,428.14Z" transform="translate(-274.45 -400.83)"/><path class="cls-3" d="M289.25,422.17a1.24,1.24,0,0,1-.38,1.05,1.78,1.78,0,0,1-.55.39.6.6,0,0,1-.65-.1.23.23,0,0,1,0-.31c.06-.11.13-.19.26-.16a1.22,1.22,0,0,1,.27.09c.3.09.39.07.58-.2s.19-.33.29-.5A3,3,0,0,1,289.25,422.17Z" transform="translate(-274.45 -400.83)"/></svg>