<svg id="Layer_1" data-name="Layer 1" xmlns="http://www.w3.org/2000/svg" viewBox="0 0 47.97 37.44"><defs><style>.cls-1{fill:#5a9ad3;}.cls-2{fill:#202529;}</style></defs><path class="cls-1" d="M292.76,408c-3.53,3.65-9.24,9.33-9.41,14.77-.16,4.75,4.32,8.29,8.83,8.07,8.43-.4,19.84-17.48,8.91-22.22-8.65-3.75-20.93,13.44-13,19.94,8.21,6.76,23.45,1.76,23.88-9.52a11.17,11.17,0,0,0-7-10.71c-6.09-2.43-12.44,2.23-17.63,5.06-4,2.19-8.05,5.24-8,10.32,0,5.84,4.93,9.49,9.74,11.64,5.49,2.45,11.55,3.72,16.63-.27a19.29,19.29,0,0,0,5-6.45c1.37-2.62,3.26-5.23,4.39-7.92,2.53-6-2.45-9.81-6.34-13.6-4.29-4.17-8-7.13-14-3.94-5,2.65-10.45,6.95-12.64,12.32a32.39,32.39,0,0,0-1,4c-.56,2.06-.84,1.93-2.49,3.16a7.62,7.62,0,0,0-2.93,7.31c.73,5.9,6.58,8.84,12,9.22a20.85,20.85,0,0,0,17.22-7.38c3.33-3.9-2.3-9.58-5.66-5.66a13.46,13.46,0,0,1-7.47,4.79c-1.27.28-8.64.77-7.73-2.14.24-.76,3.26-2.35,3.88-3.64,1-2,.7-4.21,1.45-6.24,1.11-3,3.8-5.06,6.29-6.81,3.39-2.39,4.53-2.24,7.48.63a35.53,35.53,0,0,1,3.11,3c1.32,1.66,1.12,1.73.47,3.38a39.76,39.76,0,0,1-4,7.43c-2.66,3.86-6.05,3.31-9.95,1.63-1.42-.62-3.35-1.37-4.39-2.61-1.89-2.28.06-3.42,1.86-4.66a44.11,44.11,0,0,1,7.32-3.79c1.86-.81,4.81-2.62,6.15,0,.75,1.47,0,3.21-.93,4.32-1.36,1.58-8.92,4-8.73-.13,0-.73,1.52-2.11,1.95-2.64.32-.38,2.63-3.88,1.09-1.58-.34.5-4.37,7.21-5.18,5.05-.59-1.57,5.54-7.41,6.61-8.52,3.58-3.69-2.07-9.36-5.66-5.65Z" transform="translate(-273.54 -401.78)"/><path class="cls-2" d="M296.78,427.1q-.13-1-.27-2c0-.08-.09-.15-.16-.28l-.58-.15c-.25-.06-.52-.08-.77-.15-.54-.14-.86-.79-.81-1.61s.35-1.23,1-1.31,1-.09,1.5-.13c.66-.7.58-1.61,1-2.38-.36-.29-.71-.54-1-.82a.86.86,0,0,1-.24-1.17,1.45,1.45,0,0,1,2.23-.76l.41.17a18.09,18.09,0,0,0,1.49-1.82c-.26-.39-.52-.73-.73-1.1a1.14,1.14,0,0,1-.15-.62,1.94,1.94,0,0,1,2.15-1.46,10.35,10.35,0,0,1,1,.36c.08.29.16.57.22.82.08,0,.12.08.15.07l2.67-.82.16-1c.11-.08.25-.18.38-.29a1.86,1.86,0,0,1,2.29-.15c1,.54.89.21,1.14,1.52l3.27,1.05.4-.43a1.27,1.27,0,0,1,2,0,4.07,4.07,0,0,1,.62,1.14c.07.16,0,.42-.13.6a3,3,0,0,1-.4.49l1.86,2c.49-.12.86-.75,1.51-.46a1.82,1.82,0,0,1,.77.86c.58,1,.45,1.42-.6,2.16-.18.61.16,1.16.29,1.73.56.44,1.36,0,1.95.68,0,.38.09.89.09,1.41a1.44,1.44,0,0,1-1.22,1.6c-.2.07-.42.11-.71.19-.22.63-.46,1.27-.67,1.93a.6.6,0,0,0,.33.76l.83.45a3.18,3.18,0,0,1-.19.78,9.4,9.4,0,0,1-.9,1.27c-.85,1-1.29,1.1-2.51.42a12.17,12.17,0,0,0-1.79,1.5c.08.33.2.65.25,1a1.2,1.2,0,0,1-.64,1.31c-1.28.73-1.78.58-2.51-.72-.06-.11-.13-.22-.23-.38-.37,0-.76.05-1.14.1s-.76.1-1.08.15a1.51,1.51,0,0,0,0,1.11.79.79,0,0,1-.53,1,3.71,3.71,0,0,1-1.14.21,3.56,3.56,0,0,1-.91-.12,1.11,1.11,0,0,1-1-1.06c0-.43-.06-.86-.08-1.3A3.21,3.21,0,0,0,304,433a3.55,3.55,0,0,0-.23.31c-.67.92-1.2,1.06-2.19.53-.46-.25-.89-.54-1.38-.84.14-.47.27-.87.42-1.38l-2.15-2c-.22.14-.41.25-.58.37a1,1,0,0,1-1.42-.1l-.2-.16a1.18,1.18,0,0,1-.14-1.91Zm.31,1.33.11-.05s0-.06,0-.09l-.11.15-.07.2Zm.55-6.76a1.5,1.5,0,0,1-.08.17,1.14,1.14,0,0,0,.07-.19l.05-.09Zm.53,4.44-.18.47.09,0c0-.17.05-.34.07-.51l0-.11Zm19.62-5.23c-.13.15-.28.29-.4.45s0,.12.1.27c.12-.29.2-.51.29-.73l.18-.36-.17-.05Zm-9.6,9.35h1.44a10.59,10.59,0,0,0,1.69-.11,5.59,5.59,0,0,0,3.42-2.22,7.71,7.71,0,0,0,1.66-6.11,4.27,4.27,0,0,0-.72-1.94,10.55,10.55,0,0,0-4.32-3.47,29.2,29.2,0,0,0-4.15-1.1,5.38,5.38,0,0,0-5.48,2.45,17.82,17.82,0,0,0-1.57,3.44,8,8,0,0,0-.37,3.22,5,5,0,0,0,2.18,4.12c.32.21.63.46.95.69a5.32,5.32,0,0,0,3.05,1C306.71,430.25,307.45,430.23,308.19,430.23ZM315,415.8c.1.32.22.64.29,1s-.13.68.18,1C316,416.8,316,416.73,315,415.8ZM300,429.11a1.17,1.17,0,0,0,0-1.25A.94.94,0,0,0,300,429.11Zm2.1,2.32a2.16,2.16,0,0,0,.38.17c.06,0,.14,0,.21,0s-.12-.22-.2-.25S302.3,431.37,302.12,431.43Zm-.38-1.25-.13,0a4.64,4.64,0,0,0,.11.51s.09,0,.1,0,.15-.12.13-.16A2.44,2.44,0,0,0,301.74,430.18Zm13.59-.53.13.1.31-.39-.12-.09C315.54,429.39,315.44,429.52,315.33,429.65ZM295,422.72l-.12.31.08,0c.06-.1.12-.2.17-.3Zm9.77,8.25c-.17-.14-.24-.25-.33-.27s-.18.06-.26.1.09.15.15.16A1.87,1.87,0,0,0,304.76,431Zm2.38,2.77-.15-.12s-.08.06-.07.09a.89.89,0,0,0,.07.19Zm3.47-20-.25-.21s-.08.06-.08.08.09.19.13.29Zm1.32.16-.17.11a2.73,2.73,0,0,0,.2.25s.14-.08.14-.09A3.18,3.18,0,0,0,311.93,413.92Zm-7.19.39c-.08-.08-.13-.16-.18-.16a.26.26,0,0,0-.2.11s0,.12.06.19Zm-5.9,11.53,0-.11a.41.41,0,0,0-.05.09.5.5,0,0,0,0,.12Zm.56.79-.09-.15s-.05.08,0,.11a.67.67,0,0,0,.09.14Zm17.8.66-.15-.13c0,.06-.12.12-.12.17s.1.09.16.14Zm-16.28,1.56-.07-.08a1.18,1.18,0,0,0-.1.19s.05.05.08.07Zm15.79-10.57c0-.07,0-.14-.07-.21s-.12.08-.12.12a.54.54,0,0,0,.05.21Zm-7-3.5a1.22,1.22,0,0,0-.19-.12l-.08.08a2.12,2.12,0,0,0,.2.12S309.69,414.81,309.71,414.78Zm-2.86,16.87-.21.05c.05,0,.1.1.14.1s.11-.06.17-.1Zm-1,.85s-.07-.06-.1-.07a.57.57,0,0,0-.13,0s.07.09.12.11S305.86,432.52,305.9,432.5Zm4,.29s-.08-.09-.1-.09l-.24.09Zm-9-17s0-.07,0-.09,0,0-.08-.05l-.06.16Zm6.59-1.94s0-.1,0-.11l-.2,0s0,.1,0,.1Zm9.48,14.78-.08.17s.08,0,.09-.06S316.94,428.63,316.94,428.59Zm1.76-3.21-.05.08h.06Zm-4.15-9.16-.08,0a.53.53,0,0,0-.06.1l.14.06Zm1.73,3.3h.09l0-.09Zm-10.75-6.43-.08,0,.08,0Zm7.56,3.22v-.08l-.09,0Zm3.81,9h-.08l0,.09Z" transform="translate(-273.54 -401.78)"/><path class="cls-2" d="M287.06,423.29a1.27,1.27,0,0,0-.58,1.13c0,.43-.1.87-.18,1.29a1,1,0,0,1-.67.75,2.37,2.37,0,0,1-2-.22,1.08,1.08,0,0,1-.36-.65c-.07-.43,0-.87-.07-1.31a.64.64,0,0,0-.51-.66.76.76,0,0,0-.88.42c-.21.43-.36.89-.59,1.3a.87.87,0,0,1-1.11.45,3.66,3.66,0,0,1-.83-.38c-.52-.32-.6-.58-.46-1.21s.29-1.18.44-1.82a6.87,6.87,0,0,0-.66-.44,1,1,0,0,0-1.1.13c-.79.54-1,.5-1.7-.1l-.29-.26a1.31,1.31,0,0,1-.07-2,8,8,0,0,1,.88-.76c.18-.15.33-.32.22-.55a.6.6,0,0,0-.62-.4c-.21,0-.42.09-.64.12-.85.14-1.13,0-1.42-.74a5.08,5.08,0,0,1-.3-1.39,1.12,1.12,0,0,1,.94-1.35c.41-.12.84-.16,1.32-.25,0-.22.06-.42.09-.65-.17-.1-.31-.2-.46-.27-1-.51-1.23-.86-1-1.95.31-1.57.79-1.82,2.25-1.14.12.06.24.09.39.15a2.44,2.44,0,0,0,1-1.24c-.27-.3-.51-.6-.77-.88a.82.82,0,0,1-.15-1.07,3.09,3.09,0,0,1,1.92-1.47.76.76,0,0,1,.89.37c.21.33.46.62.68.93a1.62,1.62,0,0,0,1.47-.81,5.27,5.27,0,0,0,.2-1.6,3.07,3.07,0,0,1,2.4-.69c.7.1.95.36,1.08,1.08,0,.13,0,.26,0,.39a.77.77,0,0,0,.78.74c.51.08,1,.12,1.63.18.18-.25.39-.52.56-.81a1.33,1.33,0,0,1,1.45-.62,2.07,2.07,0,0,1,1.34.75,1,1,0,0,1,.22,1,9.63,9.63,0,0,0-.33,1.13.71.71,0,0,0,.89.81c.33-.09.65-.24,1-.34a.74.74,0,0,1,.91.31,4.38,4.38,0,0,1,.65,2.36c0,.2-.25.45-.44.59s-.63.28-.92.47a.44.44,0,0,0,.14.74,2.79,2.79,0,0,0,.76.11c.31,0,.61,0,.92,0a.77.77,0,0,1,.73.64,4,4,0,0,1,0,1.94.78.78,0,0,1-.73.64l-.79,0a1.27,1.27,0,0,0-.94.38,1.12,1.12,0,0,0-.2,1.17c.3.14.66.28,1,.46a.8.8,0,0,1,.47.85,2.78,2.78,0,0,1-2.35,2.3,1,1,0,0,1-.49-.14,4.8,4.8,0,0,1-.53-.39c-.27-.2-.55-.59-.89-.38a2.57,2.57,0,0,0-.86.93.93.93,0,0,0,.1.73c.16.35.43.65.62,1a1,1,0,0,1-.44,1.64,3.68,3.68,0,0,1-1,.4,1.28,1.28,0,0,1-1.52-.71C287.36,424.11,287.24,423.75,287.06,423.29Zm-7-1.27c-.1.38-.18.67-.25,1-.11.47-.22.93-.3,1.4a.53.53,0,0,0,.41.59c.36.13.67.08.8-.2a11.2,11.2,0,0,0,.45-1.08,1.22,1.22,0,0,1,1.21-.83,3.38,3.38,0,0,1,.78.07.84.84,0,0,1,.71.82c0,.48,0,1,0,1.44a.71.71,0,0,0,.33.5,1.06,1.06,0,0,0,1.61-.9c0-.26,0-.52,0-.78a4.4,4.4,0,0,1,.19-.89,1.07,1.07,0,0,1,1.11-.74.72.72,0,0,1,.81.66c.06.3.07.61.14.9a.57.57,0,0,0,.66.49,2.89,2.89,0,0,0,.86-.28.5.5,0,0,0,.24-.67c-.16-.36-.38-.68-.57-1a1.38,1.38,0,0,1,.18-1.9,4.85,4.85,0,0,1,.55-.56,1.12,1.12,0,0,1,1.44-.05,1.42,1.42,0,0,1,.29.26,1,1,0,0,0,1.43.1,1.66,1.66,0,0,0,.92-1.41,7,7,0,0,0-.82-.33.78.78,0,0,1-.66-.84,4.1,4.1,0,0,1,.14-1.16,1.27,1.27,0,0,1,1.24-1l.78-.07a.74.74,0,0,0,.68-.68,2.92,2.92,0,0,0,0-.78.49.49,0,0,0-.52-.48,6.77,6.77,0,0,0-.78,0,1.75,1.75,0,0,1-1.22-.27,2.88,2.88,0,0,1-.37-1.44l1.56-1a2.37,2.37,0,0,0-.54-1.92l-1.54.57c-.3-.16-.61-.3-.91-.48-.6-.36-.68-.59-.46-1.3a4.82,4.82,0,0,0,.43-1.45c-1.07-.95-1.47-.87-2.09.3a8,8,0,0,1-.49.71c-.75-.12-1.42-.29-2.11-.33a1.21,1.21,0,0,1-1.29-1.05c-.06-.2,0-.43-.09-.64a.65.65,0,0,0-.74-.58,2.8,2.8,0,0,0-.64.08c-.7.18-.87.41-.83,1.1,0,.3.07.59.1.91a6.85,6.85,0,0,1-2.64,1.12c-.27-.4-.51-.77-.77-1.11a.76.76,0,0,0-.43-.25,1.59,1.59,0,0,0-1.27,1,.67.67,0,0,0,.1.48c.22.27.49.49.73.75a.58.58,0,0,1,.09.72,12.86,12.86,0,0,1-.71,1.1c-.48.67-.73.73-1.55.41-1.1-.44-1.38-.25-1.34.95a2.65,2.65,0,0,0,.16.63l.78.22c.59.16.69.31.65.92,0,.09,0,.17,0,.26-.13,1.07-.19,1.12-1.27,1.17h-.26c-.82.08-1.1.42-.93,1.2a6.86,6.86,0,0,0,.37,1,6.85,6.85,0,0,0,1.09-.12,1.1,1.1,0,0,1,1.4.63l.35.67a1.5,1.5,0,0,1-.18.38c-.32.3-.66.57-1,.85-.73.62-.74,1.07,0,1.71a2.13,2.13,0,0,0,.5.23c.91-1,1.85-.78,2.78-.09Z" transform="translate(-273.54 -401.78)"/><path class="cls-2" d="M278.2,415.33a9.51,9.51,0,0,1,.6-3.28,3.2,3.2,0,0,1,.85-1.3c.83-.69,1.69-1.36,2.57-2a3.53,3.53,0,0,1,2-.46,6.34,6.34,0,0,1,4.28,1.32,6.06,6.06,0,0,1,2.4,3.62c0,.26.1.51.15.77a5.44,5.44,0,0,1-.47,3.68,6.68,6.68,0,0,1-4.45,3.71,6.31,6.31,0,0,1-4.43-.49,5.47,5.47,0,0,1-3.14-3.62C278.4,416.53,278.28,415.76,278.2,415.33Zm12.37-.78a5.88,5.88,0,0,0-3.11-4.87,7.64,7.64,0,0,0-3.53-.72,2.78,2.78,0,0,0-1.35.4c-.54.28-1,.7-1.52,1a4.27,4.27,0,0,0-1.88,2.58,7.44,7.44,0,0,0-.29,3.11,5,5,0,0,0,1.94,3.56,6.87,6.87,0,0,0,2.35,1.08,5.48,5.48,0,0,0,4.41-.62A5.86,5.86,0,0,0,290.57,414.55Z" transform="translate(-273.54 -401.78)"/></svg>